WorkSans-Bold.ufo
<glyph name="hyphen" format="2">
  <advance width="540"/>
  <unicode hex="002D"/>
  <outline>
    <contour>
      <point x="75" y="359" type="line"/>
      <point x="75" y="184" type="line"/>
      <point x="465" y="184" type="line"/>
      <point x="465" y="359" type="line"/>
    </contour>
  </outline>
</glyph>
<glyph name="slash" format="2">
  <advance width="488"/>
  <unicode hex="002F"/>
  <outline>
    <contour>
      <point x="269" y="700" type="line"/>
      <point x="6" y="-70" type="line"/>
      <point x="219" y="-70" type="line"/>
      <point x="482" y="700" type="line"/>
    </contour>
  </outline>
</glyph>
<glyph name="one" format="2">
  <advance width="459"/>
  <unicode hex="0031"/>
  <outline>
    <contour>
      <point x="403" y="660" type="line"/>
      <point x="222" y="660" type="line"/>
      <point x="197" y="609"/>
      <point x="180" y="548"/>
      <point x="180" y="505" type="curve" smooth="yes"/>
      <point x="180" y="0" type="line"/>
      <point x="403" y="0" type="line"/>
      <point x="403" y="506" type="line"/>
    </contour>
    <contour>
      <point x="162" y="386"/>
      <point x="272" y="529"/>
      <point x="307" y="618" type="curve"/>
      <point x="222" y="660" type="line"/>
      <point x="192" y="613"/>
      <point x="102" y="563"/>
      <point x="20" y="554" type="curve"/>
      <point x="33" y="367" type="line"/>
    </contour>
  </outline>
</glyph>
<glyph name="nine" format="2">
  <advance width="610"/>
  <unicode hex="0039"/>
  <outline>
    <contour>
      <point x="120" y="670"/>
      <point x="21" y="585"/>
      <point x="21" y="440" type="curve" smooth="yes"/>
      <point x="21" y="313"/>
      <point x="123" y="232"/>
      <point x="231" y="232" type="curve" smooth="yes"/>
      <point x="302" y="232"/>
      <point x="356" y="262"/>
      <point x="371" y="295" type="curve"/>
      <point x="374" y="295" type="line"/>
      <point x="374" y="286"/>
      <point x="374" y="280"/>
      <point x="374" y="274" type="curve" smooth="yes"/>
      <point x="374" y="192"/>
      <point x="340" y="157"/>
      <point x="292" y="157" type="curve" smooth="yes"/>
      <point x="261" y="157"/>
      <point x="244" y="173"/>
      <point x="239" y="204" type="curve"/>
      <point x="35" y="131" type="line"/>
      <point x="79" y="29"/>
      <point x="168" y="-10"/>
      <point x="287" y="-10" type="curve" smooth="yes"/>
      <point x="465" y="-10"/>
      <point x="584" y="78"/>
      <point x="584" y="324" type="curve" smooth="yes"/>
      <point x="584" y="567"/>
      <point x="479" y="670"/>
      <point x="298" y="670" type="curve" smooth="yes"/>
    </contour>
    <contour>
      <point x="330" y="497"/>
      <point x="351" y="477"/>
      <point x="351" y="441" type="curve" smooth="yes"/>
      <point x="351" y="405"/>
      <point x="330" y="385"/>
      <point x="290" y="385" type="curve" smooth="yes"/>
      <point x="250" y="385"/>
      <point x="229" y="405"/>
      <point x="229" y="441" type="curve" smooth="yes"/>
      <point x="229" y="477"/>
      <point x="250" y="497"/>
      <point x="290" y="497" type="curve" smooth="yes"/>
    </contour>
  </outline>
</glyph>
<glyph name="question" format="2">
  <advance width="651"/>
  <unicode hex="003F"/>
  <outline>
    <contour>
      <point x="114" y="670"/>
      <point x="37" y="588"/>
      <point x="28" y="490" type="curve"/>
      <point x="254" y="413" type="line"/>
      <point x="255" y="468"/>
      <point x="278" y="490"/>
      <point x="316" y="490" type="curve" smooth="yes"/>
      <point x="349" y="490"/>
      <point x="364" y="475"/>
      <point x="364" y="445" type="curve" smooth="yes"/>
      <point x="364" y="407"/>
      <point x="326" y="375"/>
      <point x="202" y="372" type="curve"/>
      <point x="218" y="218" type="line"/>
      <point x="405" y="218" type="line"/>
      <point x="422" y="290" type="line"/>
      <point x="532" y="302"/>
      <point x="614" y="348"/>
      <point x="614" y="481" type="curve" smooth="yes"/>
      <point x="614" y="621"/>
      <point x="496" y="670"/>
      <point x="331" y="670" type="curve" smooth="yes"/>
    </contour>
    <component base="period" xScale="0.95" yScale="0.9" xOffset="168"/>
  </outline>
</glyph>
<glyph name="I" format="2">
  <advance width="333"/>
  <unicode hex="0049"/>
  <anchor x="167" y="0" name="bottom"/>
  <anchor x="167" y="0" name="bottomC"/>
  <anchor x="283" y="0" name="ogonek"/>
  <anchor x="166" y="660" name="top"/>
  <outline>
    <contour>
      <point x="50" y="660" type="line"/>
      <point x="50" y="0" type="line"/>
      <point x="283" y="0" type="line"/>
      <point x="283" y="660" type="line"/>
    </contour>
  </outline>
</glyph>
<glyph name="L" format="2">
  <advance width="605"/>
  <unicode hex="004C"/>
  <anchor x="318" y="0" name="bottom"/>
  <anchor x="318" y="0" name="bottomC"/>
  <anchor x="405" y="364" name="center"/>
  <anchor x="582" y="0" name="ogonek"/>
  <anchor x="166" y="660" name="top"/>
  <anchor x="388" y="701" name="topright"/>
  <outline>
    <contour>
      <point x="50" y="660" type="line"/>
      <point x="50" y="0" type="line"/>
      <point x="283" y="0" type="line"/>
      <point x="283" y="660" type="line"/>
    </contour>
    <contour>
      <point x="162" y="171" type="line"/>
      <point x="162" y="0" type="line"/>
      <point x="582" y="0" type="line"/>
      <point x="582" y="171" type="line"/>
    </contour>
  </outline>
</glyph>
<glyph name="V" format="2">
  <advance width="707"/>
  <unicode hex="0056"/>
  <anchor x="354" y="0" name="bottom"/>
  <anchor x="354" y="0" name="bottomC"/>
  <anchor x="492" y="0" name="ogonek"/>
  <anchor x="354" y="660" name="top"/>
  <outline>
    <contour>
      <point x="481" y="660" type="line"/>
      <point x="388" y="297" type="line"/>
      <point x="358" y="170" type="line"/>
      <point x="326" y="299" type="line"/>
      <point x="235" y="660" type="line"/>
      <point x="-8" y="660" type="line"/>
      <point x="215" y="0" type="line"/>
      <point x="492" y="0" type="line"/>
      <point x="715" y="660" type="line"/>
    </contour>
  </outline>
</glyph>
<glyph name="W" format="2">
  <advance width="1021"/>
  <unicode hex="0057"/>
  <anchor x="510" y="0" name="bottom"/>
  <anchor x="713" y="0" name="bottomC"/>
  <anchor x="840" y="0" name="ogonek"/>
  <anchor x="510" y="660" name="top"/>
  <outline>
    <contour>
      <point x="512" y="417" type="line"/>
      <point x="515" y="417" type="line"/>
      <point x="541" y="248" type="line"/>
      <point x="593" y="0" type="line"/>
      <point x="840" y="0" type="line"/>
      <point x="1028" y="660" type="line"/>
      <point x="786" y="660" type="line"/>
      <point x="711" y="186" type="line"/>
      <point x="613" y="660" type="line"/>
      <point x="413" y="660" type="line"/>
      <point x="320" y="183" type="line"/>
      <point x="243" y="660" type="line"/>
      <point x="-8" y="660" type="line"/>
      <point x="179" y="0" type="line"/>
      <point x="435" y="0" type="line"/>
      <point x="486" y="248" type="line"/>
    </contour>
  </outline>
</glyph>
<glyph name="Y" format="2">
  <advance width="713"/>
  <unicode hex="0059"/>
  <anchor x="356" y="0" name="bottom"/>
  <anchor x="357" y="0" name="bottomC"/>
  <anchor x="473" y="0" name="ogonek"/>
  <anchor x="356" y="660" name="top"/>
  <outline>
    <contour>
      <point x="475" y="660" type="line"/>
      <point x="405" y="509" type="line"/>
      <point x="358" y="389" type="line"/>
      <point x="311" y="509" type="line"/>
      <point x="241" y="660" type="line"/>
      <point x="9" y="660" type="line"/>
      <point x="240" y="229" type="line"/>
      <point x="240" y="0" type="line"/>
      <point x="473" y="0" type="line"/>
      <point x="473" y="229" type="line"/>
      <point x="704.006" y="660" type="line"/>
    </contour>
  </outline>
</glyph>
<glyph name="Z" format="2">
  <advance width="637"/>
  <unicode hex="005A"/>
  <anchor x="306" y="0" name="bottom"/>
  <anchor x="306" y="0" name="bottomC"/>
  <anchor x="622" y="0" name="ogonek"/>
  <anchor x="329" y="660" name="top"/>
  <outline>
    <contour>
      <point x="611" y="501" type="line"/>
      <point x="611" y="660" type="line"/>
      <point x="29" y="660" type="line"/>
      <point x="29" y="494" type="line"/>
      <point x="477" y="494" type="line"/>
      <point x="437" y="571" type="line"/>
      <point x="25" y="159" type="line"/>
      <point x="25" y="0" type="line"/>
      <point x="622" y="0" type="line"/>
      <point x="622" y="166" type="line"/>
      <point x="160" y="166" type="line"/>
      <point x="201" y="89" type="line"/>
    </contour>
  </outline>
</glyph>
<glyph name="grave" format="2">
  <advance width="500"/>
  <unicode hex="0060"/>
  <anchor x="250" y="500" name="_top"/>
  <outline>
    <contour>
      <point x="68" y="730" type="line"/>
      <point x="171" y="553" type="line"/>
      <point x="333" y="553" type="line"/>
      <point x="273" y="730" type="line"/>
    </contour>
  </outline>
</glyph>
<glyph name="c" format="2">
  <advance width="576"/>
  <unicode hex="0063"/>
  <anchor x="297" y="0" name="bottom"/>
  <anchor x="314" y="0" name="bottomC"/>
  <anchor x="422" y="10" name="ogonek"/>
  <anchor x="297" y="500" name="top"/>
  <outline>
    <contour>
      <point x="121" y="510"/>
      <point x="20" y="416"/>
      <point x="20" y="250" type="curve" smooth="yes"/>
      <point x="20" y="84"/>
      <point x="118" y="-10"/>
      <point x="309" y="-10" type="curve" smooth="yes"/>
      <point x="471" y="-10"/>
      <point x="559" y="63"/>
      <point x="559" y="147" type="curve"/>
      <point x="353" y="211" type="line"/>
      <point x="350" y="168"/>
      <point x="337" y="145"/>
      <point x="308" y="145" type="curve" smooth="yes"/>
      <point x="275" y="145"/>
      <point x="251" y="161"/>
      <point x="251" y="247" type="curve" smooth="yes"/>
      <point x="251" y="330"/>
      <point x="269" y="355"/>
      <point x="309" y="355" type="curve" smooth="yes"/>
      <point x="337" y="355"/>
      <point x="351" y="331.273"/>
      <point x="349" y="278" type="curve"/>
      <point x="561" y="340" type="line"/>
      <point x="559" y="421"/>
      <point x="499" y="510"/>
      <point x="297" y="510" type="curve" smooth="yes"/>
    </contour>
  </outline>
</glyph>
<glyph name="j" format="2">
  <advance width="306"/>
  <unicode hex="006A"/>
  <anchor x="83" y="-210" name="bottom"/>
  <anchor x="83" y="-210" name="bottomC"/>
  <anchor x="146" y="-204" name="ogonek"/>
  <anchor x="153" y="714" name="top"/>
  <outline>
    <contour>
      <point x="62" y="724"/>
      <point x="29" y="698"/>
      <point x="29" y="628" type="curve" smooth="yes"/>
      <point x="29" y="558"/>
      <point x="62" y="532"/>
      <point x="153" y="532" type="curve" smooth="yes"/>
      <point x="246" y="532"/>
      <point x="279" y="558"/>
      <point x="279" y="628" type="curve" smooth="yes"/>
      <point x="279" y="698"/>
      <point x="246" y="724"/>
      <point x="153" y="724" type="curve" smooth="yes"/>
    </contour>
    <component base="jdotless"/>
  </outline>
</glyph>
<glyph name="n" format="2">
  <advance width="620"/>
  <unicode hex="006E"/>
  <anchor x="303" y="0" name="bottom"/>
  <anchor x="467" y="0" name="bottomC"/>
  <anchor x="582" y="0" name="ogonek"/>
  <anchor x="309" y="500" name="top"/>
  <outline>
    <contour>
      <point x="299" y="510"/>
      <point x="231" y="418"/>
      <point x="231" y="262" type="curve"/>
      <point x="269" y="262" type="line"/>
      <point x="269" y="316"/>
      <point x="284" y="340"/>
      <point x="317" y="340" type="curve" smooth="yes"/>
      <point x="341" y="340"/>
      <point x="352" y="327"/>
      <point x="352" y="282" type="curve" smooth="yes"/>
      <point x="352" y="0" type="line"/>
      <point x="582" y="0" type="line"/>
      <point x="582" y="342" type="line" smooth="yes"/>
      <point x="582" y="449"/>
      <point x="524" y="510"/>
      <point x="425" y="510" type="curve" smooth="yes"/>
    </contour>
    <contour>
      <point x="39" y="500" type="line"/>
      <point x="39" y="281" type="line"/>
      <point x="39" y="0" type="line"/>
      <point x="269" y="0" type="line"/>
      <point x="269" y="281" type="line"/>
      <point x="254" y="338" type="line"/>
      <point x="246" y="500" type="line"/>
    </contour>
  </outline>
</glyph>
<glyph name="q" format="2">
  <advance width="627"/>
  <unicode hex="0071"/>
  <anchor x="473" y="-210" name="bottom"/>
  <anchor x="223" y="0" name="bottomC"/>
  <anchor x="288" y="10" name="ogonek"/>
  <anchor x="310" y="500" name="top"/>
  <outline>
    <contour>
      <point x="386" y="500" type="line"/>
      <point x="378" y="338" type="line"/>
      <point x="358" y="281" type="line"/>
      <point x="358" y="-210" type="line"/>
      <point x="588" y="-210" type="line"/>
      <point x="588" y="281" type="line"/>
      <point x="588" y="500" type="line"/>
    </contour>
    <component base="bowl" yScale="-1" xOffset="-55" yOffset="500"/>
  </outline>
</glyph>
<glyph name="s" format="2">
  <advance width="537"/>
  <unicode hex="0073"/>
  <anchor x="273" y="0" name="bottom"/>
  <anchor x="270" y="0" name="bottomC"/>
  <anchor x="403" y="10" name="ogonek"/>
  <anchor x="282" y="500" name="top"/>
  <outline>
    <contour>
      <point x="454" y="-10"/>
      <point x="529" y="74"/>
      <point x="529" y="170" type="curve" smooth="yes"/>
      <point x="529" y="262"/>
      <point x="461" y="313"/>
      <point x="308" y="334" type="curve" smooth="yes"/>
      <point x="264" y="340"/>
      <point x="247" y="346"/>
      <point x="247" y="354" type="curve" smooth="yes"/>
      <point x="247" y="363"/>
      <point x="259" y="372"/>
      <point x="298" y="372" type="curve" smooth="yes"/>
      <point x="346" y="372"/>
      <point x="397" y="363"/>
      <point x="434" y="326" type="curve"/>
      <point x="528" y="437" type="line"/>
      <point x="490" y="472"/>
      <point x="416" y="510"/>
      <point x="287" y="510" type="curve" smooth="yes"/>
      <point x="97" y="510"/>
      <point x="16" y="418"/>
      <point x="16" y="336" type="curve" smooth="yes"/>
      <point x="16" y="256"/>
      <point x="77" y="204"/>
      <point x="223" y="175" type="curve" smooth="yes"/>
      <point x="279" y="164"/>
      <point x="298" y="155"/>
      <point x="298" y="143" type="curve" smooth="yes"/>
      <point x="298" y="132"/>
      <point x="277" y="128"/>
      <point x="254" y="128" type="curve" smooth="yes"/>
      <point x="195" y="128"/>
      <point x="143" y="154"/>
      <point x="107" y="186" type="curve"/>
      <point x="6" y="64" type="line"/>
      <point x="65" y="11"/>
      <point x="149" y="-10"/>
      <point x="271" y="-10" type="curve" smooth="yes"/>
    </contour>
  </outline>
</glyph>
<glyph name="u" format="2">
  <advance width="620"/>
  <unicode hex="0075"/>
  <anchor x="304" y="0" name="bottom"/>
  <anchor x="466" y="0" name="bottomC"/>
  <anchor x="581" y="0" name="ogonek"/>
  <anchor x="304" y="500" name="top"/>
  <outline>
    <contour>
      <point x="38" y="500" type="line"/>
      <point x="38" y="162" type="line" smooth="yes"/>
      <point x="38" y="40"/>
      <point x="96" y="-10"/>
      <point x="200" y="-10" type="curve" smooth="yes"/>
      <point x="321" y="-10"/>
      <point x="389" y="73"/>
      <point x="389" y="239" type="curve"/>
      <point x="351" y="239" type="line"/>
      <point x="351" y="185"/>
      <point x="336" y="160"/>
      <point x="305" y="160" type="curve" smooth="yes"/>
      <point x="279" y="160"/>
      <point x="268" y="174"/>
      <point x="268" y="219" type="curve" smooth="yes"/>
      <point x="268" y="500" type="line"/>
    </contour>
    <contour>
      <point x="351" y="500" type="line"/>
      <point x="351" y="219" type="line"/>
      <point x="366" y="162" type="line"/>
      <point x="374" y="0" type="line"/>
      <point x="581" y="0" type="line"/>
      <point x="581" y="500" type="line"/>
    </contour>
  </outline>
</glyph>
<glyph name="z" format="2">
  <advance width="502"/>
  <unicode hex="007A"/>
  <anchor x="252" y="0" name="bottom"/>
  <anchor x="252" y="0" name="bottomC"/>
  <anchor x="489" y="0" name="ogonek"/>
  <anchor x="252" y="500" name="top"/>
  <outline>
    <contour>
      <point x="489" y="0" type="line"/>
      <point x="489" y="152" type="line"/>
      <point x="359" y="152" type="line"/>
      <point x="277" y="150" type="line"/>
      <point x="326" y="198" type="line"/>
      <point x="479" y="368" type="line"/>
      <point x="479" y="500" type="line"/>
      <point x="22" y="500" type="line"/>
      <point x="22" y="348" type="line"/>
      <point x="152" y="348" type="line"/>
      <point x="225" y="350" type="line"/>
      <point x="178" y="304" type="line"/>
      <point x="22" y="132" type="line"/>
      <point x="22" y="0" type="line"/>
    </contour>
  </outline>
</glyph>
<glyph name="sterling" format="2">
  <advance width="622"/>
  <unicode hex="00A3"/>
  <outline>
    <contour>
      <point x="31" y="363" type="line"/>
      <point x="31" y="242" type="line"/>
      <point x="515" y="242" type="line"/>
      <point x="515" y="363" type="line"/>
    </contour>
    <component base="sterling.part" xOffset="10"/>
  </outline>
</glyph>
<glyph name="currency" format="2">
  <advance width="634"/>
  <unicode hex="00A4"/>
  <outline>
    <contour>
      <point x="188" y="536"/>
      <point x="102" y="453"/>
      <point x="102" y="330" type="curve" smooth="yes"/>
      <point x="102" y="206"/>
      <point x="188" y="123"/>
      <point x="318" y="123" type="curve" smooth="yes"/>
      <point x="446" y="123"/>
      <point x="532" y="206"/>
      <point x="532" y="330" type="curve" smooth="yes"/>
      <point x="532" y="453"/>
      <point x="446" y="536"/>
      <point x="318" y="536" type="curve" smooth="yes"/>
    </contour>
    <contour>
      <point x="350" y="384"/>
      <point x="369" y="364"/>
      <point x="369" y="330" type="curve" smooth="yes"/>
      <point x="369" y="296"/>
      <point x="350" y="276"/>
      <point x="318" y="276" type="curve" smooth="yes"/>
      <point x="285" y="276"/>
      <point x="265" y="296"/>
      <point x="265" y="330" type="curve" smooth="yes"/>
      <point x="265" y="364"/>
      <point x="285" y="384"/>
      <point x="318" y="384" type="curve" smooth="yes"/>
    </contour>
    <contour>
      <point x="14" y="503" type="line"/>
      <point x="180" y="364" type="line"/>
      <point x="282" y="466" type="line"/>
      <point x="143" y="632" type="line"/>
    </contour>
    <contour>
      <point x="14" y="156" type="line"/>
      <point x="143" y="27" type="line"/>
      <point x="282" y="193" type="line"/>
      <point x="180" y="295" type="line"/>
    </contour>
    <contour>
      <point x="356" y="187" type="line"/>
      <point x="490" y="27" type="line"/>
      <point x="620" y="156" type="line"/>
      <point x="460" y="290" type="line"/>
    </contour>
    <contour>
      <point x="356" y="472" type="line"/>
      <point x="460" y="368" type="line"/>
      <point x="620" y="503" type="line"/>
      <point x="490" y="632" type="line"/>
    </contour>
  </outline>
</glyph>
<glyph name="brokenbar" format="2">
  <advance width="284"/>
  <unicode hex="00A6"/>
  <outline>
    <contour>
      <point x="40" y="701" type="line"/>
      <point x="40" y="310" type="line"/>
      <point x="244" y="310" type="line"/>
      <point x="244" y="701" type="line"/>
    </contour>
    <contour>
      <point x="40" y="223" type="line"/>
      <point x="40" y="-168" type="line"/>
      <point x="244" y="-168" type="line"/>
      <point x="244" y="223" type="line"/>
    </contour>
  </outline>
</glyph>
<glyph name="section" format="2">
  <advance width="639"/>
  <unicode hex="00A7"/>
  <outline>
    <contour>
      <point x="169" y="670"/>
      <point x="76" y="593"/>
      <point x="76" y="472" type="curve" smooth="yes"/>
      <point x="76" y="366"/>
      <point x="153" y="309"/>
      <point x="346" y="292" type="curve" smooth="yes"/>
      <point x="442" y="284"/>
      <point x="471" y="270"/>
      <point x="471" y="245" type="curve" smooth="yes"/>
      <point x="471" y="220"/>
      <point x="443" y="209"/>
      <point x="365" y="190" type="curve"/>
      <point x="432" y="74" type="line"/>
      <point x="536" y="101"/>
      <point x="620" y="157"/>
      <point x="620" y="282" type="curve" smooth="yes"/>
      <point x="620" y="384"/>
      <point x="537" y="442"/>
      <point x="344" y="457" type="curve" smooth="yes"/>
      <point x="259" y="464"/>
      <point x="234" y="475"/>
      <point x="234" y="493" type="curve" smooth="yes"/>
      <point x="234" y="514"/>
      <point x="264" y="532"/>
      <point x="326" y="532" type="curve" smooth="yes"/>
      <point x="394" y="532"/>
      <point x="427" y="515"/>
      <point x="462" y="474" type="curve"/>
      <point x="569" y="577" type="line"/>
      <point x="513" y="640"/>
      <point x="452" y="670"/>
      <point x="324" y="670" type="curve" smooth="yes"/>
    </contour>
    <contour>
      <point x="469" y="-110"/>
      <point x="562" y="-47"/>
      <point x="562" y="74" type="curve" smooth="yes"/>
      <point x="562" y="181"/>
      <point x="485" y="237"/>
      <point x="292" y="254" type="curve" smooth="yes"/>
      <point x="196" y="262"/>
      <point x="167" y="276"/>
      <point x="167" y="301" type="curve" smooth="yes"/>
      <point x="167" y="326"/>
      <point x="195" y="337"/>
      <point x="273" y="356" type="curve"/>
      <point x="206" y="472" type="line"/>
      <point x="102" y="445"/>
      <point x="18" y="389"/>
      <point x="18" y="264" type="curve" smooth="yes"/>
      <point x="18" y="162"/>
      <point x="101" y="103"/>
      <point x="294" y="89" type="curve" smooth="yes"/>
      <point x="379" y="83"/>
      <point x="404" y="71"/>
      <point x="404" y="53" type="curve" smooth="yes"/>
      <point x="404" y="32"/>
      <point x="374" y="28"/>
      <point x="312" y="28" type="curve" smooth="yes"/>
      <point x="244" y="28"/>
      <point x="211" y="45"/>
      <point x="176" y="86" type="curve"/>
      <point x="69" y="-17" type="line"/>
      <point x="125" y="-80"/>
      <point x="186" y="-110"/>
      <point x="314" y="-110" type="curve" smooth="yes"/>
    </contour>
  </outline>
</glyph>
<glyph name="registered" format="2">
  <advance width="740"/>
  <unicode hex="00AE"/>
  <outline>
    <contour>
      <point x="161" y="670"/>
      <point x="24" y="535"/>
      <point x="24" y="330" type="curve" smooth="yes"/>
      <point x="24" y="125"/>
      <point x="161" y="-10"/>
      <point x="370" y="-10" type="curve" smooth="yes"/>
      <point x="579" y="-10"/>
      <point x="716" y="125"/>
      <point x="716" y="330" type="curve" smooth="yes"/>
      <point x="716" y="535"/>
      <point x="579" y="670"/>
      <point x="370" y="670" type="curve" smooth="yes"/>
    </contour>
    <contour>
      <point x="218" y="517" type="line"/>
      <point x="218" y="157" type="line"/>
      <point x="342" y="157" type="line"/>
      <point x="342" y="517" type="line"/>
    </contour>
    <contour>
      <point x="333" y="297" type="line"/>
      <point x="391" y="157" type="line"/>
      <point x="543" y="157" type="line"/>
      <point x="442" y="320" type="line"/>
    </contour>
    <contour>
      <point x="518" y="574"/>
      <point x="615" y="477"/>
      <point x="615" y="330" type="curve" smooth="yes"/>
      <point x="615" y="183"/>
      <point x="518" y="86"/>
      <point x="370" y="86" type="curve" smooth="yes"/>
      <point x="222" y="86"/>
      <point x="125" y="183"/>
      <point x="125" y="330" type="curve" smooth="yes"/>
      <point x="125" y="477"/>
      <point x="222" y="574"/>
      <point x="370" y="574" type="curve" smooth="yes"/>
    </contour>
    <contour>
      <point x="288" y="517" type="line"/>
      <point x="288" y="411" type="line"/>
      <point x="370" y="411" type="line" smooth="yes"/>
      <point x="391" y="411"/>
      <point x="407" y="405"/>
      <point x="407" y="384" type="curve" smooth="yes"/>
      <point x="407" y="363"/>
      <point x="391" y="357"/>
      <point x="370" y="357" type="curve" smooth="yes"/>
      <point x="288" y="357" type="line"/>
      <point x="288" y="275" type="line"/>
      <point x="389" y="275" type="line" smooth="yes"/>
      <point x="478" y="275"/>
      <point x="534" y="318"/>
      <point x="534" y="396" type="curve" smooth="yes"/>
      <point x="534" y="465"/>
      <point x="478" y="517"/>
      <point x="409" y="517" type="curve" smooth="yes"/>
    </contour>
  </outline>
</glyph>
<glyph name="paragraph" format="2">
  <advance width="809"/>
  <unicode hex="00B6"/>
  <outline>
    <contour>
      <point x="320" y="660" type="line" smooth="yes"/>
      <point x="121" y="660"/>
      <point x="30" y="590"/>
      <point x="30" y="441" type="curve" smooth="yes"/>
      <point x="30" y="292"/>
      <point x="121" y="225"/>
      <point x="299" y="224" type="curve"/>
      <point x="299" y="-100" type="line"/>
      <point x="482" y="-100" type="line"/>
      <point x="482" y="660" type="line"/>
    </contour>
    <contour>
      <point x="576" y="660" type="line"/>
      <point x="576" y="-100" type="line"/>
      <point x="759" y="-100" type="line"/>
      <point x="759" y="660" type="line"/>
    </contour>
    <contour>
      <point x="345" y="660" type="line"/>
      <point x="345" y="488" type="line"/>
      <point x="666" y="488" type="line"/>
      <point x="666" y="660" type="line"/>
    </contour>
  </outline>
</glyph>
<glyph name="onesuperior" format="2">
  <advance width="335"/>
  <unicode hex="00B9"/>
  <anchor x="191" y="527" name="_indexring"/>
  <outline>
    <contour>
      <point x="301" y="730" type="line"/>
      <point x="168" y="730" type="line"/>
      <point x="150" y="651"/>
      <point x="143" y="568"/>
      <point x="143" y="526" type="curve" smooth="yes"/>
      <point x="143" y="333" type="line"/>
      <point x="301" y="333" type="line"/>
      <point x="301" y="636" type="line"/>
    </contour>
    <contour>
      <point x="128" y="545"/>
      <point x="228" y="648"/>
      <point x="253" y="702" type="curve"/>
      <point x="168" y="730" type="line"/>
      <point x="146" y="706"/>
      <point x="73" y="676"/>
      <point x="25" y="672" type="curve"/>
      <point x="25" y="543" type="line"/>
    </contour>
  </outline>
</glyph>
<glyph name="Idieresis" format="2">
  <advance width="333"/>
  <unicode hex="00CF"/>
  <anchor x="167" y="0" name="bottomC"/>
  <anchor x="166" y="660" name="top"/>
  <anchor x="283" y="0" name="ogonek"/>
  <anchor x="167" y="0" name="bottom"/>
  <outline>
    <contour>
      <point x="-10" y="880"/>
      <point x="-46" y="847"/>
      <point x="-46" y="789" type="curve" smooth="yes"/>
      <point x="-46" y="731"/>
      <point x="-10" y="698"/>
      <point x="52" y="698" type="curve" smooth="yes"/>
      <point x="116" y="698"/>
      <point x="154" y="731"/>
      <point x="154" y="789" type="curve" smooth="yes"/>
      <point x="154" y="847"/>
      <point x="116" y="880"/>
      <point x="52" y="880" type="curve" smooth="yes"/>
    </contour>
    <contour>
      <point x="215" y="880"/>
      <point x="179" y="847"/>
      <point x="179" y="789" type="curve" smooth="yes"/>
      <point x="179" y="731"/>
      <point x="215" y="698"/>
      <point x="277" y="698" type="curve" smooth="yes"/>
      <point x="341" y="698"/>
      <point x="379" y="731"/>
      <point x="379" y="789" type="curve" smooth="yes"/>
      <point x="379" y="847"/>
      <point x="341" y="880"/>
      <point x="277" y="880" type="curve" smooth="yes"/>
    </contour>
    <component base="I"/>
  </outline>
</glyph>
<glyph name="germandbls" format="2">
  <advance width="666"/>
  <unicode hex="00DF"/>
  <anchor x="344" y="0" name="bottom"/>
  <anchor x="436" y="0" name="bottomC"/>
  <anchor x="538" y="10" name="ogonek"/>
  <anchor x="344" y="700" name="top"/>
  <outline>
    <contour>
      <point x="473" y="347" type="line"/>
      <point x="575" y="347"/>
      <point x="638" y="421"/>
      <point x="638" y="507" type="curve" smooth="yes"/>
      <point x="638" y="628"/>
      <point x="537" y="705"/>
      <point x="356" y="705" type="curve" smooth="yes"/>
      <point x="130" y="705"/>
      <point x="39" y="610"/>
      <point x="39" y="437" type="curve" smooth="yes"/>
      <point x="39" y="0" type="line"/>
      <point x="269" y="0" type="line"/>
      <point x="269" y="431" type="line" smooth="yes"/>
      <point x="269" y="518"/>
      <point x="292" y="550"/>
      <point x="355" y="550" type="curve" smooth="yes"/>
      <point x="391" y="550"/>
      <point x="417" y="526"/>
      <point x="417" y="486" type="curve" smooth="yes"/>
      <point x="417" y="444"/>
      <point x="398" y="418"/>
      <point x="364" y="417" type="curve" smooth="yes"/>
      <point x="338" y="417" type="line"/>
      <point x="310" y="265" type="line"/>
      <point x="365" y="265" type="line" smooth="yes"/>
      <point x="406" y="265"/>
      <point x="428" y="245"/>
      <point x="428" y="208" type="curve" smooth="yes"/>
      <point x="428" y="168"/>
      <point x="407" y="145"/>
      <point x="376" y="145" type="curve" smooth="yes"/>
      <point x="349" y="145"/>
      <point x="337" y="152"/>
      <point x="323" y="167" type="curve"/>
      <point x="293" y="22" type="line"/>
      <point x="325" y="1"/>
      <point x="371" y="-10"/>
      <point x="429" y="-10" type="curve" smooth="yes"/>
      <point x="583" y="-10"/>
      <point x="649" y="78"/>
      <point x="649" y="175" type="curve" smooth="yes"/>
      <point x="649" y="282"/>
      <point x="574" y="345"/>
      <point x="473" y="345" type="curve"/>
    </contour>
  </outline>
</glyph>
<glyph name="eth" format="2">
  <advance width="593"/>
  <unicode hex="00F0"/>
  <anchor x="300" y="0" name="bottom"/>
  <anchor x="300" y="0" name="bottomC"/>
  <anchor x="425" y="10" name="ogonek"/>
  <anchor x="300" y="700" name="top"/>
  <outline>
    <contour>
      <point x="156" y="717" type="line"/>
      <point x="328" y="591"/>
      <point x="415" y="521"/>
      <point x="415" y="318" type="curve"/>
      <point x="357" y="246" type="line"/>
      <point x="357" y="169"/>
      <point x="345" y="145"/>
      <point x="306" y="145" type="curve" smooth="yes"/>
      <point x="269" y="145"/>
      <point x="258" y="171"/>
      <point x="258" y="246" type="curve" smooth="yes"/>
      <point x="258" y="335"/>
      <point x="269" y="362"/>
      <point x="306" y="362" type="curve" smooth="yes"/>
      <point x="345" y="362"/>
      <point x="357" y="335"/>
      <point x="357" y="246" type="curve"/>
      <point x="427" y="265" type="line"/>
      <point x="427" y="395"/>
      <point x="414" y="502"/>
      <point x="278" y="502" type="curve" smooth="yes"/>
      <point x="126" y="502"/>
      <point x="27" y="409"/>
      <point x="27" y="246" type="curve" smooth="yes"/>
      <point x="27" y="83"/>
      <point x="127" y="-10"/>
      <point x="289" y="-10" type="curve" smooth="yes"/>
      <point x="491" y="-10"/>
      <point x="572" y="75"/>
      <point x="572" y="313" type="curve" smooth="yes"/>
      <point x="572" y="543"/>
      <point x="435" y="671"/>
      <point x="341" y="717" type="curve"/>
    </contour>
    <contour>
      <point x="172" y="604" type="line"/>
      <point x="183" y="544" type="line"/>
      <point x="353" y="573" type="line"/>
      <point x="318" y="616" type="line"/>
    </contour>
    <contour>
      <point x="404" y="635" type="line"/>
      <point x="423" y="598" type="line"/>
      <point x="582" y="610" type="line"/>
      <point x="567" y="670" type="line"/>
    </contour>
  </outline>
</glyph>
<glyph name="divide" format="2">
  <advance width="604"/>
  <unicode hex="00F7"/>
  <outline>
    <contour>
      <point x="44" y="407" type="line"/>
      <point x="44" y="254" type="line"/>
      <point x="560" y="254" type="line"/>
      <point x="560" y="407" type="line"/>
    </contour>
    <component base="period" xScale="0.777" yScale="0.863" xOffset="183" yOffset="17"/>
    <component base="period" xScale="0.777" yScale="0.863" xOffset="183" yOffset="473"/>
  </outline>
</glyph>
<glyph name="oslash" format="2">
  <advance width="598"/>
  <unicode hex="00F8"/>
  <anchor x="299" y="0" name="bottom"/>
  <anchor x="299" y="0" name="bottomC"/>
  <anchor x="422" y="10" name="ogonek"/>
  <anchor x="299" y="500" name="top"/>
  <outline>
    <contour>
      <point x="122" y="510"/>
      <point x="20" y="415"/>
      <point x="20" y="250" type="curve" smooth="yes"/>
      <point x="20" y="163"/>
      <point x="48" y="96"/>
      <point x="100" y="52" type="curve"/>
      <point x="44" y="-21" type="line"/>
      <point x="111" y="-21" type="line"/>
      <point x="144" y="23" type="line"/>
      <point x="186" y="1"/>
      <point x="238" y="-10"/>
      <point x="299" y="-10" type="curve" smooth="yes"/>
      <point x="476" y="-10"/>
      <point x="578" y="85"/>
      <point x="578" y="250" type="curve" smooth="yes"/>
      <point x="578" y="333"/>
      <point x="552" y="399"/>
      <point x="504" y="443" type="curve"/>
      <point x="566" y="520" type="line"/>
      <point x="499" y="520" type="line"/>
      <point x="462" y="473" type="line"/>
      <point x="418" y="497"/>
      <point x="364" y="510"/>
      <point x="299" y="510" type="curve" smooth="yes"/>
    </contour>
    <contour>
      <point x="251" y="229"/>
      <point x="251" y="239"/>
      <point x="251" y="250" type="curve" smooth="yes"/>
      <point x="251" y="334"/>
      <point x="261" y="355"/>
      <point x="299" y="355" type="curve" smooth="yes"/>
      <point x="317" y="355"/>
      <point x="329" y="350"/>
      <point x="336" y="336" type="curve"/>
      <point x="267" y="243" type="line"/>
      <point x="252" y="218" type="line"/>
      <point x="251" y="218" type="line"/>
    </contour>
    <contour>
      <point x="284" y="145"/>
      <point x="273" y="148"/>
      <point x="266" y="158" type="curve"/>
      <point x="331" y="245" type="line"/>
      <point x="346" y="269" type="line"/>
      <point x="347" y="269" type="line"/>
      <point x="347" y="263"/>
      <point x="347" y="256"/>
      <point x="347" y="250" type="curve" smooth="yes"/>
      <point x="347" y="166"/>
      <point x="337" y="145"/>
      <point x="299" y="145" type="curve" smooth="yes"/>
    </contour>
  </outline>
</glyph>
<glyph name="thorn" format="2">
  <advance width="627"/>
  <unicode hex="00FE"/>
  <anchor x="154" y="-210" name="bottom"/>
  <anchor x="441" y="0" name="bottomC"/>
  <anchor x="493" y="10" name="ogonek"/>
  <anchor x="154" y="700" name="top"/>
  <outline>
    <contour>
      <point x="39" y="700" type="line"/>
      <point x="39" y="-210" type="line"/>
      <point x="269" y="-210" type="line"/>
      <point x="269" y="700" type="line"/>
    </contour>
    <contour>
      <point x="295" y="510"/>
      <point x="249" y="397"/>
      <point x="249" y="280" type="curve"/>
      <point x="269" y="254" type="line"/>
      <point x="269" y="323"/>
      <point x="287" y="349"/>
      <point x="318" y="349" type="curve" smooth="yes"/>
      <point x="357" y="349"/>
      <point x="370" y="329"/>
      <point x="370" y="250" type="curve" smooth="yes"/>
      <point x="370" y="171"/>
      <point x="357" y="152"/>
      <point x="318" y="152" type="curve" smooth="yes"/>
      <point x="284" y="152"/>
      <point x="269" y="182"/>
      <point x="269" y="246" type="curve"/>
      <point x="242" y="220" type="line"/>
      <point x="242" y="90"/>
      <point x="289" y="-10"/>
      <point x="409" y="-10" type="curve" smooth="yes"/>
      <point x="481" y="-10"/>
      <point x="602" y="35"/>
      <point x="602" y="258" type="curve" smooth="yes"/>
      <point x="602" y="439"/>
      <point x="514" y="510"/>
      <point x="418" y="510" type="curve" smooth="yes"/>
    </contour>
  </outline>
</glyph>
<glyph name="aogonek" format="2">
  <advance width="588"/>
  <unicode hex="0105"/>
  <anchor x="277" y="-210" name="bottom"/>
  <anchor x="508" y="-210" name="bottomC"/>
  <anchor x="527" y="-210" name="ogonek"/>
  <anchor x="277" y="500" name="top"/>
  <outline>
    <contour>
      <point x="115" y="510"/>
      <point x="32" y="441"/>
      <point x="22" y="329" type="curve"/>
      <point x="212" y="300" type="line"/>
      <point x="214" y="349"/>
      <point x="237" y="361"/>
      <point x="265" y="361" type="curve" smooth="yes"/>
      <point x="294" y="361"/>
      <point x="310" y="343"/>
      <point x="310" y="312" type="curve" smooth="yes"/>
      <point x="310" y="112" type="line"/>
      <point x="356" y="126" type="line"/>
      <point x="356" y="56"/>
      <point x="401" y="9"/>
      <point x="505" y="9" type="curve" smooth="yes"/>
      <point x="530" y="9"/>
      <point x="555" y="5"/>
      <point x="579" y="5" type="curve"/>
      <point x="597" y="127" type="line"/>
      <point x="591" y="124"/>
      <point x="583" y="123"/>
      <point x="572" y="123" type="curve" smooth="yes"/>
      <point x="550" y="123"/>
      <point x="538" y="136"/>
      <point x="538" y="164" type="curve" smooth="yes"/>
      <point x="538" y="304" type="line" smooth="yes"/>
      <point x="538" y="441"/>
      <point x="457" y="510"/>
      <point x="278" y="510" type="curve" smooth="yes"/>
    </contour>
    <contour>
      <point x="379" y="27"/>
      <point x="321" y="-17"/>
      <point x="321" y="-90" type="curve" smooth="yes"/>
      <point x="321" y="-180"/>
      <point x="390" y="-215"/>
      <point x="473" y="-215" type="curve" smooth="yes"/>
      <point x="523" y="-215"/>
      <point x="559" y="-209"/>
      <point x="591" y="-189" type="curve"/>
      <point x="564" y="-86" type="line"/>
      <point x="554" y="-92"/>
      <point x="539" y="-94"/>
      <point x="524" y="-94" type="curve" smooth="yes"/>
      <point x="493" y="-94"/>
      <point x="475" y="-80"/>
      <point x="475" y="-56" type="curve" smooth="yes"/>
      <point x="475" y="-18"/>
      <point x="511" y="-1"/>
      <point x="579" y="5" type="curve"/>
      <point x="481" y="27" type="line"/>
    </contour>
    <contour>
      <point x="211" y="270" type="line" smooth="yes"/>
      <point x="69" y="239"/>
      <point x="16" y="192"/>
      <point x="16" y="109" type="curve" smooth="yes"/>
      <point x="16" y="33"/>
      <point x="65" y="-10"/>
      <point x="170" y="-10" type="curve" smooth="yes"/>
      <point x="312" y="-10"/>
      <point x="372" y="74"/>
      <point x="372" y="164" type="curve"/>
      <point x="310" y="164" type="line"/>
      <point x="310" y="131"/>
      <point x="291" y="115"/>
      <point x="267" y="115" type="curve" smooth="yes"/>
      <point x="248" y="115"/>
      <point x="232" y="126"/>
      <point x="232" y="150" type="curve" smooth="yes"/>
      <point x="232" y="175"/>
      <point x="249" y="194"/>
      <point x="277" y="202" type="curve" smooth="yes"/>
      <point x="360" y="226" type="line"/>
      <point x="342" y="299" type="line"/>
    </contour>
  </outline>
</glyph>
<glyph name="Dcroat" format="2">
  <advance width="744"/>
  <unicode hex="0110"/>
  <anchor x="359" y="0" name="bottom"/>
  <anchor x="376" y="0" name="bottomC"/>
  <anchor x="402" y="0" name="ogonek"/>
  <anchor x="359" y="660" name="top"/>
  <anchor x="43" y="14" name="center"/>
  <outline>
    <contour>
      <point x="4" y="403" type="line"/>
      <point x="4" y="253" type="line"/>
      <point x="397" y="253" type="line"/>
      <point x="397" y="403" type="line"/>
    </contour>
    <component base="D" xOffset="28"/>
  </outline>
</glyph>
<glyph name="dcroat" format="2">
  <advance width="627"/>
  <unicode hex="0111"/>
  <anchor x="310" y="0" name="bottom"/>
  <anchor x="223" y="0" name="bottomC"/>
  <anchor x="288" y="10" name="ogonek"/>
  <anchor x="473" y="700" name="top"/>
  <anchor x="310" y="250" name="center"/>
  <anchor x="643" y="700" name="topright"/>
  <outline>
    <contour>
      <point x="246" y="640" type="line"/>
      <point x="246" y="519" type="line"/>
      <point x="664" y="519" type="line"/>
      <point x="664" y="640" type="line"/>
    </contour>
    <component base="d"/>
  </outline>
</glyph>
<glyph name="gbreve" format="2">
  <advance width="578"/>
  <unicode hex="011F"/>
  <outline>
    <contour>
      <point x="483" y="662"/>
      <point x="417" y="559"/>
      <point x="437" y="454" type="curve"/>
      <point x="494" y="434" type="line"/>
      <point x="494" y="500"/>
      <point x="541" y="527"/>
      <point x="597" y="520" type="curve"/>
      <point x="578" y="662" type="line"/>
    </contour>
    <component base="gbase" xOffset="-6"/>
    <component base="breve" xOffset="39"/>
  </outline>
</glyph>
<glyph name="uni0123" format="2">
  <advance width="578"/>
  <unicode hex="0123"/>
  <anchor x="298" y="-210" name="bottomC"/>
  <anchor x="255" y="500" name="top"/>
  <anchor x="423" y="-200" name="ogonek"/>
  <anchor x="298" y="-210" name="bottom"/>
  <outline>
    <contour>
      <point x="262" y="768" type="line"/>
      <point x="191" y="547" type="line"/>
      <point x="369" y="547" type="line"/>
      <point x="401" y="768" type="line"/>
    </contour>
    <component base="g"/>
  </outline>
</glyph>
<glyph name="uogonek" format="2">
  <advance width="620"/>
  <unicode hex="0173"/>
  <anchor x="304" y="-210" name="bottom"/>
  <anchor x="505" y="-210" name="bottomC"/>
  <anchor x="511" y="-210" name="ogonek"/>
  <anchor x="304" y="500" name="top"/>
  <outline>
    <contour>
      <point x="38" y="500" type="line"/>
      <point x="38" y="162" type="line" smooth="yes"/>
      <point x="38" y="40"/>
      <point x="96" y="-10"/>
      <point x="200" y="-10" type="curve" smooth="yes"/>
      <point x="321" y="-10"/>
      <point x="389" y="73"/>
      <point x="389" y="239" type="curve"/>
      <point x="351" y="239" type="line"/>
      <point x="351" y="185"/>
      <point x="336" y="160"/>
      <point x="305" y="160" type="curve" smooth="yes"/>
      <point x="279" y="160"/>
      <point x="268" y="174"/>
      <point x="268" y="219" type="curve" smooth="yes"/>
      <point x="268" y="500" type="line"/>
    </contour>
    <contour>
      <point x="468" y="-25"/>
      <point x="511" y="0"/>
      <point x="581" y="0" type="curve"/>
      <point x="489" y="32" type="line"/>
      <point x="387" y="26"/>
      <point x="314" y="-17"/>
      <point x="314" y="-96" type="curve" smooth="yes"/>
      <point x="314" y="-180"/>
      <point x="383" y="-215"/>
      <point x="466" y="-215" type="curve" smooth="yes"/>
      <point x="516" y="-215"/>
      <point x="552" y="-209"/>
      <point x="584" y="-189" type="curve"/>
      <point x="557" y="-86" type="line"/>
      <point x="547" y="-92"/>
      <point x="532" y="-94"/>
      <point x="517" y="-94" type="curve" smooth="yes"/>
      <point x="486" y="-94"/>
      <point x="468" y="-80"/>
      <point x="468" y="-56" type="curve" smooth="yes"/>
    </contour>
    <contour>
      <point x="351" y="500" type="line"/>
      <point x="351" y="219" type="line"/>
      <point x="366" y="162" type="line"/>
      <point x="374" y="0" type="line"/>
      <point x="581" y="0" type="line"/>
      <point x="581" y="152" type="line"/>
      <point x="581" y="500" type="line"/>
    </contour>
  </outline>
</glyph>
<glyph name="jdotless" format="2">
  <advance width="308"/>
  <unicode hex="0237"/>
  <anchor x="83" y="-210" name="bottom"/>
  <anchor x="83" y="-210" name="bottomC"/>
  <anchor x="146" y="-204" name="ogonek"/>
  <anchor x="154" y="500" name="top"/>
  <outline>
    <contour>
      <point x="39" y="500" type="line"/>
      <point x="39" y="7" type="line" smooth="yes"/>
      <point x="39" y="-44"/>
      <point x="17" y="-64"/>
      <point x="-25" y="-64" type="curve" smooth="yes"/>
      <point x="-45" y="-64"/>
      <point x="-65" y="-59"/>
      <point x="-76" y="-51" type="curve"/>
      <point x="-104" y="-184" type="line"/>
      <point x="-63" y="-206"/>
      <point x="-15" y="-215"/>
      <point x="48" y="-215" type="curve" smooth="yes"/>
      <point x="203" y="-215"/>
      <point x="269" y="-155"/>
      <point x="269" y="-13" type="curve" smooth="yes"/>
      <point x="269" y="500" type="line"/>
    </contour>
  </outline>
</glyph>
<glyph name="caron" format="2">
  <advance width="500"/>
  <unicode hex="02C7"/>
  <anchor x="256" y="500" name="_top"/>
  <outline>
    <contour>
      <point x="307" y="730" type="line"/>
      <point x="250" y="659" type="line"/>
      <point x="193" y="730" type="line"/>
      <point x="37" y="730" type="line"/>
      <point x="143" y="553" type="line"/>
      <point x="357" y="553" type="line"/>
      <point x="463" y="730" type="line"/>
    </contour>
  </outline>
</glyph>
<glyph name="Germandbls" format="2">
  <advance width="738"/>
  <unicode hex="1E9E"/>
  <anchor x="371" y="0" name="bottom"/>
  <anchor x="502" y="0" name="bottomC"/>
  <anchor x="557" y="0" name="ogonek"/>
  <anchor x="371" y="660" name="top"/>
  <outline>
    <contour>
      <point x="283" y="0" type="line"/>
      <point x="283" y="362" type="line" smooth="yes"/>
      <point x="283" y="449"/>
      <point x="325" y="494"/>
      <point x="405" y="494" type="curve" smooth="yes"/>
      <point x="481" y="494" type="line"/>
      <point x="352" y="359" type="line"/>
      <point x="505" y="292" type="line"/>
      <point x="691" y="498" type="line"/>
      <point x="691" y="660" type="line"/>
      <point x="355" y="660" type="line" smooth="yes"/>
      <point x="162" y="660"/>
      <point x="50" y="565"/>
      <point x="50" y="403" type="curve" smooth="yes"/>
      <point x="50" y="0" type="line"/>
    </contour>
    <contour>
      <point x="631" y="-5"/>
      <point x="726" y="56"/>
      <point x="726" y="189" type="curve" smooth="yes"/>
      <point x="726" y="317"/>
      <point x="627" y="359"/>
      <point x="506" y="359" type="curve" smooth="yes"/>
      <point x="352" y="359" type="line"/>
      <point x="352" y="243" type="line"/>
      <point x="448" y="243" type="line" smooth="yes"/>
      <point x="487" y="243"/>
      <point x="513" y="231"/>
      <point x="513" y="198" type="curve" smooth="yes"/>
      <point x="513" y="168"/>
      <point x="488" y="151"/>
      <point x="452" y="151" type="curve" smooth="yes"/>
      <point x="411" y="151"/>
      <point x="392" y="158"/>
      <point x="367" y="177" type="curve"/>
      <point x="313" y="49" type="line"/>
      <point x="351" y="14"/>
      <point x="402" y="-5"/>
      <point x="505" y="-5" type="curve" smooth="yes"/>
    </contour>
  </outline>
</glyph>
<glyph name="emdash" format="2">
  <advance width="1000"/>
  <unicode hex="2014"/>
  <outline>
    <contour>
      <point x="75" y="359" type="line"/>
      <point x="75" y="184" type="line"/>
      <point x="925" y="184" type="line"/>
      <point x="925" y="359" type="line"/>
    </contour>
  </outline>
</glyph>
<glyph name="bullet" format="2">
  <advance width="430"/>
  <unicode hex="2022"/>
  <outline>
    <contour>
      <point x="105" y="497"/>
      <point x="42" y="436"/>
      <point x="42" y="330" type="curve" smooth="yes"/>
      <point x="42" y="224"/>
      <point x="105" y="163"/>
      <point x="215" y="163" type="curve" smooth="yes"/>
      <point x="325" y="163"/>
      <point x="388" y="224"/>
      <point x="388" y="330" type="curve" smooth="yes"/>
      <point x="388" y="436"/>
      <point x="325" y="497"/>
      <point x="215" y="497" type="curve" smooth="yes"/>
    </contour>
  </outline>
</glyph>
<glyph name="zerosuperior" format="2">
  <advance width="424"/>
  <unicode hex="2070"/>
  <outline>
    <contour>
      <point x="345" y="327"/>
      <point x="406" y="391"/>
      <point x="406" y="531" type="curve" smooth="yes"/>
      <point x="406" y="671"/>
      <point x="345" y="735"/>
      <point x="212" y="735" type="curve" smooth="yes"/>
      <point x="79" y="735"/>
      <point x="18" y="671"/>
      <point x="18" y="531" type="curve" smooth="yes"/>
      <point x="18" y="391"/>
      <point x="79" y="327"/>
      <point x="212" y="327" type="curve" smooth="yes"/>
    </contour>
    <contour>
      <point x="184" y="436"/>
      <point x="176" y="456"/>
      <point x="176" y="531" type="curve" smooth="yes"/>
      <point x="176" y="606"/>
      <point x="184" y="626"/>
      <point x="212" y="626" type="curve" smooth="yes"/>
      <point x="240" y="626"/>
      <point x="248" y="606"/>
      <point x="248" y="531" type="curve" smooth="yes"/>
      <point x="248" y="456"/>
      <point x="240" y="436"/>
      <point x="212" y="436" type="curve" smooth="yes"/>
    </contour>
  </outline>
</glyph>
<glyph name="fivesuperior" format="2">
  <advance width="402"/>
  <unicode hex="2075"/>
  <anchor x="196" y="537" name="_indexring"/>
  <outline>
    <contour>
      <point x="199" y="587"/>
      <point x="173" y="582"/>
      <point x="160" y="572" type="curve"/>
      <point x="159" y="573" type="line"/>
      <point x="163" y="580"/>
      <point x="165" y="586"/>
      <point x="166" y="595" type="curve" smooth="yes"/>
      <point x="168" y="616" type="line"/>
      <point x="360" y="616" type="line"/>
      <point x="360" y="730" type="line"/>
      <point x="50" y="730" type="line"/>
      <point x="22" y="496" type="line"/>
      <point x="152" y="480" type="line"/>
      <point x="163" y="488"/>
      <point x="172" y="492"/>
      <point x="191" y="492" type="curve" smooth="yes"/>
      <point x="212" y="492"/>
      <point x="225" y="482"/>
      <point x="225" y="465" type="curve" smooth="yes"/>
      <point x="225" y="445"/>
      <point x="212" y="435"/>
      <point x="190" y="435" type="curve" smooth="yes"/>
      <point x="165" y="435"/>
      <point x="155" y="446"/>
      <point x="149" y="463" type="curve"/>
      <point x="6" y="405" type="line"/>
      <point x="44" y="341"/>
      <point x="109" y="327"/>
      <point x="194" y="327" type="curve" smooth="yes"/>
      <point x="294" y="327"/>
      <point x="374" y="366"/>
      <point x="374" y="468" type="curve" smooth="yes"/>
      <point x="374" y="543"/>
      <point x="336" y="587"/>
      <point x="244" y="587" type="curve" smooth="yes"/>
    </contour>
  </outline>
</glyph>
<glyph name="partialdiff" format="2">
  <advance width="687"/>
  <unicode hex="2202"/>
  <outline>
    <contour>
      <point x="209" y="670"/>
      <point x="145" y="643"/>
      <point x="62" y="576" type="curve"/>
      <point x="154" y="437" type="line"/>
      <point x="198" y="477"/>
      <point x="242" y="487"/>
      <point x="293" y="487" type="curve" smooth="yes"/>
      <point x="360" y="487"/>
      <point x="426" y="451"/>
      <point x="426" y="297" type="curve" smooth="yes"/>
      <point x="426" y="183"/>
      <point x="390" y="160"/>
      <point x="354" y="160" type="curve" smooth="yes"/>
      <point x="318" y="160"/>
      <point x="300" y="179"/>
      <point x="300" y="208" type="curve" smooth="yes"/>
      <point x="300" y="239"/>
      <point x="321" y="257"/>
      <point x="358" y="257" type="curve" smooth="yes"/>
      <point x="405" y="257"/>
      <point x="421" y="211"/>
      <point x="421" y="191" type="curve"/>
      <point x="448" y="205" type="line"/>
      <point x="448" y="336"/>
      <point x="403" y="410"/>
      <point x="298" y="410" type="curve" smooth="yes"/>
      <point x="177" y="410"/>
      <point x="63" y="340"/>
      <point x="63" y="201" type="curve" smooth="yes"/>
      <point x="63" y="52"/>
      <point x="193" y="-10"/>
      <point x="311" y="-10" type="curve" smooth="yes"/>
      <point x="521" y="-10"/>
      <point x="637" y="84"/>
      <point x="637" y="349" type="curve" smooth="yes"/>
      <point x="637" y="559"/>
      <point x="520" y="670"/>
      <point x="332" y="670" type="curve" smooth="yes"/>
    </contour>
  </outline>
</glyph>
<glyph name="product" format="2">
  <advance width="696"/>
  <unicode hex="220F"/>
  <outline>
    <contour>
      <point x="433" y="660" type="line"/>
      <point x="433" y="-128" type="line"/>
      <point x="646" y="-128" type="line"/>
      <point x="646" y="660" type="line"/>
    </contour>
    <contour>
      <point x="50" y="660" type="line"/>
      <point x="50" y="-128" type="line"/>
      <point x="263" y="-128" type="line"/>
      <point x="263" y="660" type="line"/>
    </contour>
    <contour>
      <point x="159" y="660" type="line"/>
      <point x="159" y="489" type="line"/>
      <point x="546" y="489" type="line"/>
      <point x="546" y="660" type="line"/>
    </contour>
  </outline>
</glyph>
<glyph name="radical" format="2">
  <advance width="697"/>
  <unicode hex="221A"/>
  <outline>
    <contour>
      <point x="578" y="818" type="line"/>
      <point x="391" y="297" type="line"/>
      <point x="296" y="0" type="line"/>
      <point x="454" y="0" type="line"/>
      <point x="767" y="818" type="line"/>
    </contour>
    <contour>
      <point x="11" y="460" type="line"/>
      <point x="11" y="295" type="line"/>
      <point x="112" y="295" type="line"/>
      <point x="225" y="0" type="line"/>
      <point x="384" y="0" type="line"/>
      <point x="293" y="282" type="line"/>
      <point x="230" y="460" type="line"/>
    </contour>
  </outline>
</glyph>
<glyph name="whiteDiamond" format="2">
  <advance width="600"/>
  <unicode hex="25C7"/>
  <outline>
    <contour>
      <point x="565" y="259" type="line"/>
      <point x="300" y="524" type="line"/>
      <point x="35" y="259" type="line"/>
      <point x="300" y="-6" type="line"/>
    </contour>
    <contour>
      <point x="193.392" y="259" type="line"/>
      <point x="300" y="365.608" type="line"/>
      <point x="406.608" y="259" type="line"/>
      <point x="300" y="152.392" type="line"/>
    </contour>
  </outline>
</glyph>
<glyph name="blackCircle" format="2">
  <advance width="600"/>
  <unicode hex="25CF"/>
  <outline>
    <contour>
      <point x="448" y="-10"/>
      <point x="560" y="102"/>
      <point x="560" y="250" type="curve" smooth="yes"/>
      <point x="560" y="398"/>
      <point x="448" y="510"/>
      <point x="300" y="510" type="curve" smooth="yes"/>
      <point x="152" y="510"/>
      <point x="40" y="398"/>
      <point x="40" y="250" type="curve" smooth="yes"/>
      <point x="40" y="102"/>
      <point x="152" y="-10"/>
      <point x="300" y="-10" type="curve" smooth="yes"/>
    </contour>
  </outline>
</glyph>
<glyph name="heavyquoteleft" format="2">
  <advance width="680"/>
  <unicode hex="275B"/>
  <outline>
    <contour>
      <point x="177" y="665"/>
      <point x="53" y="505"/>
      <point x="53" y="276" type="curve" smooth="yes"/>
      <point x="53" y="116"/>
      <point x="147" y="-10"/>
      <point x="355" y="-10" type="curve" smooth="yes"/>
      <point x="527" y="-10"/>
      <point x="634" y="63"/>
      <point x="634" y="233" type="curve" smooth="yes"/>
      <point x="634" y="387"/>
      <point x="516" y="457"/>
      <point x="389" y="457" type="curve" smooth="yes"/>
      <point x="308" y="457"/>
      <point x="271" y="436"/>
      <point x="244" y="413" type="curve"/>
      <point x="238" y="417" type="line"/>
      <point x="272" y="488"/>
      <point x="361" y="535"/>
      <point x="620" y="535" type="curve"/>
      <point x="563" y="665" type="line"/>
    </contour>
  </outline>
</glyph>
<glyph name="curvedStemParagraphSignOrnament" format="2">
  <advance width="809"/>
  <unicode hex="2761"/>
  <outline>
    <contour>
      <point x="342" y="660" type="line" smooth="yes"/>
      <point x="149" y="660"/>
      <point x="47" y="557"/>
      <point x="47" y="411" type="curve" smooth="yes"/>
      <point x="47" y="251"/>
      <point x="187" y="171"/>
      <point x="318" y="171" type="curve" smooth="yes"/>
      <point x="348" y="171" type="line"/>
      <point x="348" y="21" type="line" smooth="yes"/>
      <point x="348" y="-34"/>
      <point x="334" y="-72"/>
      <point x="291" y="-72" type="curve" smooth="yes"/>
      <point x="229" y="-72"/>
      <point x="187" y="-28"/>
      <point x="206" y="85" type="curve"/>
      <point x="81" y="50" type="line"/>
      <point x="63" y="-102"/>
      <point x="135" y="-215"/>
      <point x="387" y="-215" type="curve" smooth="yes"/>
      <point x="658" y="-215"/>
      <point x="755" y="-38"/>
      <point x="755" y="122" type="curve" smooth="yes"/>
      <point x="755" y="660" type="line"/>
    </contour>
    <contour>
      <point x="585" y="101" type="line" smooth="yes"/>
      <point x="585" y="-9"/>
      <point x="557" y="-83"/>
      <point x="450" y="-98" type="curve"/>
      <point x="447" y="-94" type="line"/>
      <point x="492" y="-70"/>
      <point x="518" y="-28"/>
      <point x="518" y="73" type="curve" smooth="yes"/>
      <point x="518" y="518" type="line"/>
      <point x="585" y="518" type="line"/>
    </contour>
  </outline>
</glyph>
<glyph name="G.ss04" format="2">
  <advance width="722"/>
  <anchor x="379" y="0" name="bottom"/>
  <anchor x="363" y="0" name="bottomC"/>
  <anchor x="401" y="0" name="ogonek"/>
  <anchor x="364" y="660" name="top"/>
  <outline>
    <contour>
      <point x="551" y="-10"/>
      <point x="687" y="66"/>
      <point x="687" y="280" type="curve" smooth="yes"/>
      <point x="687" y="374" type="line"/>
      <point x="371" y="374" type="line"/>
      <point x="371" y="239" type="line"/>
      <point x="595" y="239" type="line"/>
      <point x="492" y="285" type="line"/>
      <point x="492" y="232" type="line" smooth="yes"/>
      <point x="492" y="194"/>
      <point x="454" y="165"/>
      <point x="392" y="165" type="curve" smooth="yes"/>
      <point x="303" y="165"/>
      <point x="267" y="205"/>
      <point x="267" y="330" type="curve" smooth="yes"/>
      <point x="267" y="445"/>
      <point x="307" y="495"/>
      <point x="373" y="495" type="curve" smooth="yes"/>
      <point x="428" y="495"/>
      <point x="453" y="470"/>
      <point x="462" y="411" type="curve"/>
      <point x="679" y="489" type="line"/>
      <point x="625" y="619"/>
      <point x="534" y="670"/>
      <point x="371" y="670" type="curve" smooth="yes"/>
      <point x="156" y="670"/>
      <point x="29" y="544"/>
      <point x="29" y="328" type="curve" smooth="yes"/>
      <point x="29" y="103"/>
      <point x="168" y="-10"/>
      <point x="368" y="-10" type="curve" smooth="yes"/>
    </contour>
  </outline>
</glyph>
<glyph name="L.swsh" format="2">
  <advance width="738"/>
  <anchor x="365" y="0" name="bottom"/>
  <anchor x="317" y="0" name="bottomC"/>
  <anchor x="405" y="364" name="center"/>
  <anchor x="461" y="0" name="ogonek"/>
  <anchor x="166" y="660" name="top"/>
  <anchor x="388" y="701" name="topright"/>
  <outline>
    <contour>
      <point x="461" y="0" type="line" smooth="yes"/>
      <point x="639" y="0"/>
      <point x="728" y="82"/>
      <point x="728" y="224" type="curve" smooth="yes"/>
      <point x="728" y="304"/>
      <point x="701" y="433"/>
      <point x="521" y="438" type="curve"/>
      <point x="458" y="298" type="line"/>
      <point x="515" y="295"/>
      <point x="534" y="264"/>
      <point x="534" y="228" type="curve" smooth="yes"/>
      <point x="534" y="199"/>
      <point x="515" y="171"/>
      <point x="461" y="171" type="curve" smooth="yes"/>
      <point x="331" y="171" type="line"/>
      <point x="331" y="0" type="line"/>
    </contour>
    <contour>
      <point x="365" y="0" type="line"/>
      <point x="406" y="171" type="line"/>
      <point x="162" y="171" type="line"/>
      <point x="162" y="0" type="line"/>
    </contour>
    <contour>
      <point x="283" y="0" type="line"/>
      <point x="283" y="660" type="line"/>
      <point x="50" y="660" type="line"/>
      <point x="50" y="0" type="line"/>
    </contour>
  </outline>
</glyph>
<glyph name="M.swsh" format="2">
  <advance width="1215"/>
  <anchor x="741" y="0" name="bottom"/>
  <anchor x="758" y="0" name="bottomC"/>
  <anchor x="1165" y="0" name="ogonek"/>
  <anchor x="741" y="660" name="top"/>
  <outline>
    <contour>
      <point x="834" y="0" type="line"/>
      <point x="962" y="451" type="line"/>
      <point x="965" y="451" type="line"/>
      <point x="962" y="229" type="line"/>
      <point x="962" y="0" type="line"/>
      <point x="1165" y="0" type="line"/>
      <point x="1165" y="660" type="line"/>
      <point x="855" y="660" type="line"/>
      <point x="779" y="367" type="line"/>
      <point x="750" y="244" type="line"/>
      <point x="748" y="244" type="line"/>
      <point x="719" y="367" type="line"/>
      <point x="643" y="660" type="line"/>
      <point x="317" y="660" type="line"/>
      <point x="317" y="192" type="line"/>
      <point x="521" y="192" type="line"/>
      <point x="521" y="229" type="line"/>
      <point x="518" y="451" type="line"/>
      <point x="522" y="451" type="line"/>
      <point x="648" y="0" type="line"/>
    </contour>
    <contour>
      <point x="290" y="362" type="line"/>
      <point x="240" y="365"/>
      <point x="214" y="396"/>
      <point x="214" y="432" type="curve" smooth="yes"/>
      <point x="214" y="464"/>
      <point x="230" y="494"/>
      <point x="277" y="494" type="curve" smooth="yes"/>
      <point x="527" y="494" type="line"/>
      <point x="527" y="660" type="line"/>
      <point x="277" y="660" type="line" smooth="yes"/>
      <point x="99" y="660"/>
      <point x="10" y="578"/>
      <point x="10" y="436" type="curve" smooth="yes"/>
      <point x="10" y="299"/>
      <point x="97" y="216"/>
      <point x="227" y="212" type="curve"/>
    </contour>
    <component base="swash_bttmleft" xOffset="82"/>
  </outline>
</glyph>
<glyph name="Osuperior" format="2">
  <advance width="476"/>
  <outline>
    <contour>
      <point x="107" y="735"/>
      <point x="21" y="661"/>
      <point x="21" y="531" type="curve" smooth="yes"/>
      <point x="21" y="401"/>
      <point x="107" y="327"/>
      <point x="238" y="327" type="curve" smooth="yes"/>
      <point x="369" y="327"/>
      <point x="455" y="401"/>
      <point x="455" y="531" type="curve" smooth="yes"/>
      <point x="455" y="661"/>
      <point x="369" y="735"/>
      <point x="238" y="735" type="curve" smooth="yes"/>
    </contour>
    <contour>
      <point x="278" y="626"/>
      <point x="295" y="600"/>
      <point x="295" y="531" type="curve" smooth="yes"/>
      <point x="295" y="462"/>
      <point x="278" y="436"/>
      <point x="238" y="436" type="curve" smooth="yes"/>
      <point x="198" y="436"/>
      <point x="181" y="462"/>
      <point x="181" y="531" type="curve" smooth="yes"/>
      <point x="181" y="600"/>
      <point x="198" y="626"/>
      <point x="238" y="626" type="curve" smooth="yes"/>
    </contour>
  </outline>
</glyph>
<glyph name="R.swsh.001" format="2">
  <advance width="781"/>
  <anchor x="362" y="0" name="bottom"/>
  <anchor x="665" y="-82" name="bottomC"/>
  <anchor x="653" y="-102" name="ogonek"/>
  <anchor x="334" y="660" name="top"/>
  <outline>
    <contour>
      <point x="408" y="219" type="line" smooth="yes"/>
      <point x="584" y="219"/>
      <point x="675" y="293"/>
      <point x="675" y="439" type="curve" smooth="yes"/>
      <point x="675" y="586"/>
      <point x="584" y="660"/>
      <point x="408" y="660" type="curve" smooth="yes"/>
      <point x="208" y="660" type="line"/>
      <point x="208" y="494" type="line"/>
      <point x="361" y="494" type="line" smooth="yes"/>
      <point x="420" y="494"/>
      <point x="442" y="477"/>
      <point x="442" y="433" type="curve" smooth="yes"/>
      <point x="442" y="388"/>
      <point x="420" y="372"/>
      <point x="361" y="372" type="curve" smooth="yes"/>
      <point x="208" y="372" type="line"/>
      <point x="208" y="219" type="line"/>
    </contour>
    <contour>
      <point x="278" y="0" type="line"/>
      <point x="278" y="660" type="line"/>
      <point x="50" y="660" type="line"/>
      <point x="50" y="0" type="line"/>
    </contour>
    <contour>
      <point x="781" y="24" type="line"/>
      <point x="722" y="31"/>
      <point x="677" y="62"/>
      <point x="620" y="136" type="curve" smooth="yes"/>
      <point x="476" y="323" type="line"/>
      <point x="277" y="289" type="line"/>
      <point x="481" y="-4" type="line" smooth="yes"/>
      <point x="520" y="-59"/>
      <point x="576" y="-102"/>
      <point x="653" y="-102" type="curve"/>
    </contour>
  </outline>
</glyph>
<glyph name="R.swsh" format="2">
  <advance width="972"/>
  <anchor x="629" y="0" name="bottom"/>
  <anchor x="863" y="0" name="bottomC"/>
  <anchor x="979" y="0" name="ogonek"/>
  <anchor x="601" y="660" name="top"/>
  <outline>
    <contour>
      <point x="675" y="219" type="line" smooth="yes"/>
      <point x="851" y="219"/>
      <point x="942" y="293"/>
      <point x="942" y="439" type="curve" smooth="yes"/>
      <point x="942" y="586"/>
      <point x="851" y="660"/>
      <point x="675" y="660" type="curve" smooth="yes"/>
      <point x="475" y="660" type="line"/>
      <point x="475" y="494" type="line"/>
      <point x="628" y="494" type="line" smooth="yes"/>
      <point x="687" y="494"/>
      <point x="709" y="477"/>
      <point x="709" y="433" type="curve" smooth="yes"/>
      <point x="709" y="388"/>
      <point x="687" y="372"/>
      <point x="628" y="372" type="curve" smooth="yes"/>
      <point x="475" y="372" type="line"/>
      <point x="475" y="219" type="line"/>
    </contour>
    <contour>
      <point x="433" y="-110"/>
      <point x="545" y="-48"/>
      <point x="545" y="149" type="curve" smooth="yes"/>
      <point x="545" y="212" type="line"/>
      <point x="317" y="212" type="line"/>
      <point x="317" y="135" type="line" smooth="yes"/>
      <point x="317" y="87"/>
      <point x="287" y="56"/>
      <point x="242" y="56" type="curve" smooth="yes"/>
      <point x="194" y="56"/>
      <point x="162" y="74"/>
      <point x="134" y="118" type="curve"/>
      <point x="58" y="-17" type="line"/>
      <point x="104" y="-83"/>
      <point x="178" y="-110"/>
      <point x="277" y="-110" type="curve" smooth="yes"/>
    </contour>
    <contour>
      <point x="545" y="203" type="line"/>
      <point x="545" y="660" type="line"/>
      <point x="317" y="660" type="line"/>
      <point x="317" y="203" type="line"/>
    </contour>
    <contour>
      <point x="979" y="0" type="line"/>
      <point x="773" y="323" type="line"/>
      <point x="572" y="289" type="line"/>
      <point x="726" y="0" type="line"/>
    </contour>
    <component base="__swash_topleft" xOffset="10"/>
  </outline>
</glyph>
<glyph name="T.swsh" format="2">
  <advance width="845"/>
  <anchor x="485" y="0" name="bottom"/>
  <anchor x="532" y="0" name="bottomC"/>
  <anchor x="501" y="338" name="center"/>
  <anchor x="619" y="0" name="ogonek"/>
  <anchor x="502" y="660" name="top"/>
  <outline>
    <contour>
      <point x="290" y="362" type="line"/>
      <point x="233" y="365"/>
      <point x="214" y="396"/>
      <point x="214" y="432" type="curve" smooth="yes"/>
      <point x="214" y="461"/>
      <point x="233" y="489"/>
      <point x="287" y="489" type="curve" smooth="yes"/>
      <point x="477" y="489" type="line"/>
      <point x="477" y="660" type="line"/>
      <point x="277" y="660" type="line" smooth="yes"/>
      <point x="99" y="660"/>
      <point x="10" y="578"/>
      <point x="10" y="436" type="curve" smooth="yes"/>
      <point x="10" y="305"/>
      <point x="97" y="216"/>
      <point x="227" y="212" type="curve"/>
    </contour>
    <contour>
      <point x="619" y="0" type="line"/>
      <point x="619" y="660" type="line"/>
      <point x="386" y="660" type="line"/>
      <point x="386" y="0" type="line"/>
    </contour>
    <contour>
      <point x="825" y="489" type="line"/>
      <point x="825" y="660" type="line"/>
      <point x="354" y="660" type="line"/>
      <point x="354" y="489" type="line"/>
    </contour>
  </outline>
</glyph>
<glyph name="__swash_topleft" format="2">
  <advance width="517"/>
  <outline>
    <contour>
      <point x="280" y="362" type="line"/>
      <point x="230" y="365"/>
      <point x="204" y="396"/>
      <point x="204" y="432" type="curve" smooth="yes"/>
      <point x="204" y="464"/>
      <point x="220" y="494"/>
      <point x="267" y="494" type="curve" smooth="yes"/>
      <point x="517" y="494" type="line"/>
      <point x="517" y="660" type="line"/>
      <point x="267" y="660" type="line" smooth="yes"/>
      <point x="89" y="660"/>
      <point x="0" y="578"/>
      <point x="0" y="436" type="curve" smooth="yes"/>
      <point x="0" y="299"/>
      <point x="87" y="216"/>
      <point x="217" y="212" type="curve"/>
    </contour>
  </outline>
</glyph>
<glyph name="acutecmb.cap" format="2">
  <anchor x="0" y="660" name="_top"/>
  <outline>
    <contour>
      <point x="-91" y="709" type="line"/>
      <point x="72" y="709" type="line"/>
      <point x="163" y="876" type="line"/>
      <point x="-33" y="876" type="line"/>
    </contour>
  </outline>
</glyph>
<glyph name="aring.sc" format="2">
  <advance width="652"/>
  <anchor x="326" y="0" name="bottom"/>
  <anchor x="556" y="0" name="bottomC"/>
  <anchor x="656" y="0" name="ogonek"/>
  <anchor x="326" y="757" name="top"/>
  <outline>
    <contour>
      <point x="212" y="0" type="line"/>
      <point x="253" y="165" type="line"/>
      <point x="321" y="391" type="line"/>
      <point x="326" y="391" type="line"/>
      <point x="389" y="165" type="line"/>
      <point x="434" y="0" type="line"/>
      <point x="656" y="0" type="line"/>
      <point x="456" y="560" type="line"/>
      <point x="196" y="560" type="line"/>
      <point x="-4" y="0" type="line"/>
    </contour>
    <contour>
      <point x="500" y="92" type="line"/>
      <point x="500" y="235" type="line"/>
      <point x="153" y="235" type="line"/>
      <point x="153" y="92" type="line"/>
    </contour>
    <contour>
      <point x="220" y="767"/>
      <point x="160" y="712"/>
      <point x="160" y="630" type="curve" smooth="yes"/>
      <point x="160" y="547"/>
      <point x="220" y="506"/>
      <point x="326" y="506" type="curve" smooth="yes"/>
      <point x="422" y="506"/>
      <point x="492" y="547"/>
      <point x="492" y="630" type="curve" smooth="yes"/>
      <point x="492" y="712"/>
      <point x="432" y="767"/>
      <point x="326" y="767" type="curve" smooth="yes"/>
    </contour>
    <contour>
      <point x="358" y="668"/>
      <point x="376" y="651"/>
      <point x="376" y="621" type="curve" smooth="yes"/>
      <point x="376" y="591"/>
      <point x="358" y="574"/>
      <point x="326" y="574" type="curve" smooth="yes"/>
      <point x="294" y="574"/>
      <point x="276" y="591"/>
      <point x="276" y="621" type="curve" smooth="yes"/>
      <point x="276" y="651"/>
      <point x="294" y="668"/>
      <point x="326" y="668" type="curve" smooth="yes"/>
    </contour>
  </outline>
</glyph>
<glyph name="bracketleftsuperior" format="2">
  <advance width="285"/>
  <outline>
    <contour>
      <point x="176" y="810" type="line"/>
      <point x="47" y="810" type="line"/>
      <point x="47" y="253" type="line"/>
      <point x="176" y="253" type="line"/>
    </contour>
    <contour>
      <point x="118" y="706" type="line"/>
      <point x="265" y="706" type="line"/>
      <point x="265" y="810" type="line"/>
      <point x="118" y="810" type="line"/>
    </contour>
    <contour>
      <point x="118" y="253" type="line"/>
      <point x="265" y="253" type="line"/>
      <point x="265" y="357" type="line"/>
      <point x="118" y="357" type="line"/>
    </contour>
  </outline>
</glyph>
<glyph name="c_t" format="2">
  <advance width="981"/>
  <outline>
    <contour>
      <point x="471" y="-10"/>
      <point x="559" y="63"/>
      <point x="559" y="147" type="curve"/>
      <point x="353" y="211" type="line"/>
      <point x="350" y="168"/>
      <point x="337" y="145"/>
      <point x="308" y="145" type="curve" smooth="yes"/>
      <point x="275" y="145"/>
      <point x="251" y="161"/>
      <point x="251" y="247" type="curve" smooth="yes"/>
      <point x="251" y="330"/>
      <point x="269" y="355"/>
      <point x="309" y="355" type="curve" smooth="yes"/>
      <point x="337" y="355"/>
      <point x="351" y="331"/>
      <point x="349" y="278" type="curve"/>
      <point x="561" y="340" type="line"/>
      <point x="536" y="401"/>
      <point x="521" y="453"/>
      <point x="521" y="497" type="curve" smooth="yes"/>
      <point x="521" y="551"/>
      <point x="542" y="565"/>
      <point x="566" y="565" type="curve" smooth="yes"/>
      <point x="588" y="565"/>
      <point x="614" y="547"/>
      <point x="614" y="491" type="curve" smooth="yes"/>
      <point x="614" y="168" type="line" smooth="yes"/>
      <point x="614" y="38"/>
      <point x="688" y="-10"/>
      <point x="828" y="-10" type="curve" smooth="yes"/>
      <point x="878" y="-10"/>
      <point x="943" y="3"/>
      <point x="977" y="24" type="curve"/>
      <point x="967" y="154" type="line"/>
      <point x="949" y="145"/>
      <point x="931" y="141"/>
      <point x="904" y="141" type="curve" smooth="yes"/>
      <point x="863" y="141"/>
      <point x="844" y="158"/>
      <point x="844" y="204" type="curve" smooth="yes"/>
      <point x="844" y="520" type="line" smooth="yes"/>
      <point x="844" y="667"/>
      <point x="705" y="720"/>
      <point x="588" y="720" type="curve" smooth="yes"/>
      <point x="446" y="720"/>
      <point x="359" y="653"/>
      <point x="359" y="547" type="curve" smooth="yes"/>
      <point x="359" y="494"/>
      <point x="387" y="466"/>
      <point x="413" y="459" type="curve"/>
      <point x="396" y="502" type="line"/>
      <point x="346" y="509"/>
      <point x="323" y="510"/>
      <point x="297" y="510" type="curve" smooth="yes"/>
      <point x="121" y="510"/>
      <point x="20" y="416"/>
      <point x="20" y="250" type="curve" smooth="yes"/>
      <point x="20" y="84"/>
      <point x="118" y="-10"/>
      <point x="309" y="-10" type="curve" smooth="yes"/>
    </contour>
    <contour>
      <point x="970" y="345" type="line"/>
      <point x="970" y="500" type="line"/>
      <point x="707" y="500" type="line"/>
      <point x="707" y="345" type="line"/>
    </contour>
  </outline>
</glyph>
<glyph name="eight.tf" format="2">
  <advance width="604"/>
  <outline>
    <contour>
      <point x="140" y="667"/>
      <point x="43" y="594"/>
      <point x="43" y="474" type="curve" smooth="yes"/>
      <point x="43" y="406"/>
      <point x="85" y="356"/>
      <point x="150" y="331" type="curve"/>
      <point x="150" y="330" type="line"/>
      <point x="76" y="305"/>
      <point x="31" y="256"/>
      <point x="31" y="183" type="curve" smooth="yes"/>
      <point x="31" y="60"/>
      <point x="131" y="-10"/>
      <point x="302" y="-10" type="curve" smooth="yes"/>
      <point x="473" y="-10"/>
      <point x="573" y="60"/>
      <point x="573" y="183" type="curve" smooth="yes"/>
      <point x="573" y="258"/>
      <point x="526" y="306"/>
      <point x="454" y="330" type="curve"/>
      <point x="454" y="331" type="line"/>
      <point x="521" y="357"/>
      <point x="561" y="406"/>
      <point x="561" y="474" type="curve" smooth="yes"/>
      <point x="561" y="594"/>
      <point x="464" y="667"/>
      <point x="302" y="667" type="curve" smooth="yes"/>
    </contour>
    <contour>
      <point x="340" y="511"/>
      <point x="362" y="491"/>
      <point x="362" y="455" type="curve" smooth="yes"/>
      <point x="362" y="419"/>
      <point x="340" y="399"/>
      <point x="302" y="399" type="curve" smooth="yes"/>
      <point x="264" y="399"/>
      <point x="242" y="419"/>
      <point x="242" y="455" type="curve" smooth="yes"/>
      <point x="242" y="491"/>
      <point x="264" y="511"/>
      <point x="302" y="511" type="curve" smooth="yes"/>
    </contour>
    <contour>
      <point x="264" y="146"/>
      <point x="243" y="166"/>
      <point x="243" y="202" type="curve" smooth="yes"/>
      <point x="243" y="238"/>
      <point x="264" y="258"/>
      <point x="303" y="258" type="curve" smooth="yes"/>
      <point x="342" y="258"/>
      <point x="363" y="238"/>
      <point x="363" y="202" type="curve" smooth="yes"/>
      <point x="363" y="166"/>
      <point x="342" y="146"/>
      <point x="303" y="146" type="curve" smooth="yes"/>
    </contour>
  </outline>
</glyph>
<glyph name="euro.part.tf" format="2">
  <advance width="604"/>
  <outline>
    <contour>
      <point x="189" y="670"/>
      <point x="90" y="548"/>
      <point x="90" y="330" type="curve" smooth="yes"/>
      <point x="90" y="113"/>
      <point x="186" y="-10"/>
      <point x="356" y="-10" type="curve" smooth="yes"/>
      <point x="483" y="-10"/>
      <point x="577" y="62"/>
      <point x="594" y="171" type="curve"/>
      <point x="430" y="213" type="line"/>
      <point x="428" y="164"/>
      <point x="406" y="143"/>
      <point x="360" y="143" type="curve" smooth="yes"/>
      <point x="303" y="143"/>
      <point x="274" y="207"/>
      <point x="274" y="330" type="curve" smooth="yes"/>
      <point x="274" y="456"/>
      <point x="305" y="517"/>
      <point x="368" y="517" type="curve" smooth="yes"/>
      <point x="407" y="517"/>
      <point x="426" y="495"/>
      <point x="430" y="446" type="curve"/>
      <point x="591" y="522" type="line"/>
      <point x="565" y="628"/>
      <point x="501" y="670"/>
      <point x="366" y="670" type="curve" smooth="yes"/>
    </contour>
  </outline>
</glyph>
<glyph name="four.sc" format="2">
  <advance width="656"/>
  <outline>
    <contour>
      <point x="545" y="0" type="line"/>
      <point x="545" y="97" type="line"/>
      <point x="628" y="97" type="line"/>
      <point x="628" y="246" type="line"/>
      <point x="545" y="246" type="line"/>
      <point x="545" y="560" type="line"/>
      <point x="276" y="560" type="line"/>
      <point x="37" y="201" type="line"/>
      <point x="37" y="97" type="line"/>
      <point x="340" y="97" type="line"/>
      <point x="340" y="0" type="line"/>
    </contour>
    <contour>
      <point x="306" y="362" type="line" smooth="yes"/>
      <point x="320" y="385"/>
      <point x="338" y="418"/>
      <point x="346" y="441" type="curve"/>
      <point x="349" y="441" type="line"/>
      <point x="342" y="246" type="line"/>
      <point x="232" y="246" type="line"/>
    </contour>
  </outline>
</glyph>
<glyph name="g.ss01_j.liga" format="2">
  <advance width="933"/>
  <anchor x="325" y="500" name="top"/>
  <outline>
    <contour>
      <point x="380" y="500" type="line"/>
      <point x="377" y="374" type="line"/>
      <point x="358" y="365" type="line"/>
      <point x="358" y="-15" type="line" smooth="yes"/>
      <point x="358" y="-65"/>
      <point x="341" y="-83"/>
      <point x="310" y="-83" type="curve" smooth="yes"/>
      <point x="275" y="-83"/>
      <point x="258" y="-58"/>
      <point x="260" y="-4" type="curve"/>
      <point x="39" y="-54" type="line"/>
      <point x="57" y="-186"/>
      <point x="159" y="-215"/>
      <point x="290" y="-215" type="curve" smooth="yes"/>
      <point x="462" y="-215"/>
      <point x="588" y="-154"/>
      <point x="588" y="40" type="curve" smooth="yes"/>
      <point x="588" y="383" type="line"/>
      <point x="588" y="500" type="line"/>
    </contour>
    <contour>
      <point x="95" y="510"/>
      <point x="25" y="420"/>
      <point x="25" y="264" type="curve" smooth="yes"/>
      <point x="25" y="111"/>
      <point x="93" y="23"/>
      <point x="216" y="23" type="curve" smooth="yes"/>
      <point x="332" y="23"/>
      <point x="396" y="118"/>
      <point x="396" y="238" type="curve"/>
      <point x="358" y="263" type="line"/>
      <point x="358" y="205"/>
      <point x="340" y="184"/>
      <point x="309" y="184" type="curve" smooth="yes"/>
      <point x="277" y="184"/>
      <point x="257" y="200"/>
      <point x="257" y="266" type="curve" smooth="yes"/>
      <point x="257" y="332"/>
      <point x="277" y="348"/>
      <point x="309" y="348" type="curve" smooth="yes"/>
      <point x="343" y="348"/>
      <point x="358" y="323"/>
      <point x="358" y="270" type="curve"/>
      <point x="382" y="295" type="line"/>
      <point x="382" y="416"/>
      <point x="333" y="510"/>
      <point x="217" y="510" type="curve" smooth="yes"/>
    </contour>
    <contour>
      <point x="666" y="500" type="line"/>
      <point x="666" y="-13" type="line" smooth="yes"/>
      <point x="666" y="-48"/>
      <point x="656" y="-60"/>
      <point x="639" y="-60" type="curve" smooth="yes"/>
      <point x="626" y="-60"/>
      <point x="618" y="-58"/>
      <point x="610" y="-50" type="curve"/>
      <point x="581" y="-201" type="line"/>
      <point x="612" y="-212"/>
      <point x="634" y="-215"/>
      <point x="670" y="-215" type="curve" smooth="yes"/>
      <point x="783" y="-215"/>
      <point x="896" y="-187"/>
      <point x="896" y="-23" type="curve" smooth="yes"/>
      <point x="896" y="500" type="line"/>
    </contour>
    <contour>
      <point x="689" y="724"/>
      <point x="656" y="698"/>
      <point x="656" y="628" type="curve" smooth="yes"/>
      <point x="656" y="558"/>
      <point x="689" y="532"/>
      <point x="780" y="532" type="curve" smooth="yes"/>
      <point x="873" y="532"/>
      <point x="906" y="558"/>
      <point x="906" y="628" type="curve" smooth="yes"/>
      <point x="906" y="698"/>
      <point x="873" y="724"/>
      <point x="780" y="724" type="curve" smooth="yes"/>
    </contour>
  </outline>
</glyph>
<glyph name="g_j.liga" format="2">
  <advance width="884"/>
  <outline>
    <contour>
      <point x="429" y="677"/>
      <point x="387" y="566"/>
      <point x="387" y="474" type="curve"/>
      <point x="454" y="454" type="line"/>
      <point x="454" y="494"/>
      <point x="497" y="539"/>
      <point x="577" y="520" type="curve"/>
      <point x="558" y="662" type="line"/>
    </contour>
    <contour>
      <point x="91" y="215"/>
      <point x="21" y="164"/>
      <point x="21" y="97" type="curve" smooth="yes"/>
      <point x="21" y="-7"/>
      <point x="135" y="-36"/>
      <point x="231" y="-36" type="curve" smooth="yes"/>
      <point x="335" y="-36" type="line" smooth="yes"/>
      <point x="362" y="-36"/>
      <point x="371" y="-41"/>
      <point x="371" y="-51" type="curve" smooth="yes"/>
      <point x="371" y="-68"/>
      <point x="338" y="-76"/>
      <point x="275" y="-76" type="curve" smooth="yes"/>
      <point x="207" y="-76"/>
      <point x="174" y="-69"/>
      <point x="174" y="-53" type="curve" smooth="yes"/>
      <point x="174" y="-39"/>
      <point x="187" y="-36"/>
      <point x="236" y="-36" type="curve"/>
      <point x="184" y="-8" type="line"/>
      <point x="47" y="-8"/>
      <point x="8" y="-57"/>
      <point x="8" y="-107" type="curve" smooth="yes"/>
      <point x="8" y="-177"/>
      <point x="105" y="-215"/>
      <point x="271" y="-215" type="curve" smooth="yes"/>
      <point x="443" y="-215"/>
      <point x="545" y="-155"/>
      <point x="545" y="-28" type="curve" smooth="yes"/>
      <point x="545" y="90"/>
      <point x="471" y="142"/>
      <point x="342" y="142" type="curve" smooth="yes"/>
      <point x="209" y="142" type="line" smooth="yes"/>
      <point x="179" y="142"/>
      <point x="166" y="150"/>
      <point x="166" y="163" type="curve" smooth="yes"/>
      <point x="166" y="178"/>
      <point x="182" y="185"/>
      <point x="229" y="185" type="curve"/>
      <point x="180" y="215" type="line"/>
    </contour>
    <contour>
      <point x="112" y="510"/>
      <point x="20" y="454"/>
      <point x="20" y="339" type="curve" smooth="yes"/>
      <point x="20" y="225"/>
      <point x="112" y="170"/>
      <point x="290" y="170" type="curve" smooth="yes"/>
      <point x="468" y="170"/>
      <point x="546" y="225"/>
      <point x="546" y="339" type="curve" smooth="yes"/>
      <point x="546" y="454"/>
      <point x="468" y="510"/>
      <point x="290" y="510" type="curve" smooth="yes"/>
    </contour>
    <contour>
      <point x="310" y="391"/>
      <point x="325" y="372"/>
      <point x="325" y="340" type="curve" smooth="yes"/>
      <point x="325" y="308"/>
      <point x="310" y="289"/>
      <point x="283" y="289" type="curve" smooth="yes"/>
      <point x="256" y="289"/>
      <point x="241" y="308"/>
      <point x="241" y="340" type="curve" smooth="yes"/>
      <point x="241" y="372"/>
      <point x="256" y="391"/>
      <point x="283" y="391" type="curve" smooth="yes"/>
    </contour>
    <contour>
      <point x="617" y="500" type="line"/>
      <point x="617" y="-13" type="line" smooth="yes"/>
      <point x="617" y="-48"/>
      <point x="607" y="-60"/>
      <point x="590" y="-60" type="curve" smooth="yes"/>
      <point x="577" y="-60"/>
      <point x="569" y="-58"/>
      <point x="561" y="-50" type="curve"/>
      <point x="532" y="-201" type="line"/>
      <point x="563" y="-212"/>
      <point x="585" y="-215"/>
      <point x="621" y="-215" type="curve" smooth="yes"/>
      <point x="734" y="-215"/>
      <point x="847" y="-187"/>
      <point x="847" y="-23" type="curve" smooth="yes"/>
      <point x="847" y="500" type="line"/>
    </contour>
    <contour>
      <point x="640" y="724"/>
      <point x="607" y="698"/>
      <point x="607" y="628" type="curve" smooth="yes"/>
      <point x="607" y="558"/>
      <point x="640" y="532"/>
      <point x="731" y="532" type="curve" smooth="yes"/>
      <point x="824" y="532"/>
      <point x="857" y="558"/>
      <point x="857" y="628" type="curve" smooth="yes"/>
      <point x="857" y="698"/>
      <point x="824" y="724"/>
      <point x="731" y="724" type="curve" smooth="yes"/>
    </contour>
  </outline>
</glyph>
<glyph name="germandbls.sc" format="2">
  <advance width="697"/>
  <anchor x="365" y="0" name="bottom"/>
  <anchor x="477" y="0" name="bottomC"/>
  <anchor x="528" y="0" name="ogonek"/>
  <anchor x="365" y="560" name="top"/>
  <outline>
    <contour>
      <point x="283" y="0" type="line"/>
      <point x="283" y="306" type="line" smooth="yes"/>
      <point x="283" y="367"/>
      <point x="322" y="402"/>
      <point x="369" y="402" type="curve" smooth="yes"/>
      <point x="461" y="402" type="line"/>
      <point x="337" y="308" type="line"/>
      <point x="455" y="245" type="line"/>
      <point x="653" y="407" type="line"/>
      <point x="653" y="560" type="line"/>
      <point x="336" y="560" type="line" smooth="yes"/>
      <point x="169" y="560"/>
      <point x="53" y="460"/>
      <point x="53" y="308" type="curve" smooth="yes"/>
      <point x="53" y="0" type="line"/>
    </contour>
    <contour>
      <point x="598" y="-4"/>
      <point x="676" y="50"/>
      <point x="676" y="164" type="curve" smooth="yes"/>
      <point x="676" y="277"/>
      <point x="595" y="308"/>
      <point x="493" y="308" type="curve" smooth="yes"/>
      <point x="337" y="308" type="line"/>
      <point x="337" y="194" type="line"/>
      <point x="432" y="194" type="line" smooth="yes"/>
      <point x="466" y="194"/>
      <point x="481" y="185"/>
      <point x="481" y="166" type="curve" smooth="yes"/>
      <point x="481" y="144"/>
      <point x="464" y="133"/>
      <point x="434" y="133" type="curve" smooth="yes"/>
      <point x="408" y="133"/>
      <point x="382" y="140"/>
      <point x="355" y="156" type="curve"/>
      <point x="316" y="43" type="line"/>
      <point x="347" y="14"/>
      <point x="400" y="-4"/>
      <point x="480" y="-4" type="curve" smooth="yes"/>
    </contour>
  </outline>
</glyph>
<glyph name="ij.sc.ss05" format="2">
  <advance width="632"/>
  <outline>
    <contour>
      <point x="41" y="560" type="line"/>
      <point x="41" y="268" type="line"/>
      <point x="271" y="268" type="line"/>
      <point x="271" y="560" type="line"/>
    </contour>
    <contour>
      <point x="361" y="560" type="line"/>
      <point x="361" y="234" type="line" smooth="yes"/>
      <point x="361" y="176"/>
      <point x="347" y="162"/>
      <point x="313" y="162" type="curve" smooth="yes"/>
      <point x="279" y="162"/>
      <point x="261" y="178"/>
      <point x="266" y="226" type="curve"/>
      <point x="43" y="226" type="line"/>
      <point x="24" y="74"/>
      <point x="130" y="-8"/>
      <point x="309" y="-8" type="curve" smooth="yes"/>
      <point x="477" y="-8"/>
      <point x="591" y="80"/>
      <point x="591" y="238" type="curve" smooth="yes"/>
      <point x="591" y="560" type="line"/>
    </contour>
  </outline>
</glyph>
<glyph name="indexring" format="2">
  <advance width="910"/>
  <anchor x="455" y="330" name="indexring"/>
  <outline>
    <contour>
      <point x="685" y="-40"/>
      <point x="840" y="109"/>
      <point x="840" y="330" type="curve" smooth="yes"/>
      <point x="840" y="551"/>
      <point x="685" y="700"/>
      <point x="455" y="700" type="curve" smooth="yes"/>
      <point x="225" y="700"/>
      <point x="70" y="551"/>
      <point x="70" y="330" type="curve" smooth="yes"/>
      <point x="70" y="109"/>
      <point x="225" y="-40"/>
      <point x="455" y="-40" type="curve" smooth="yes"/>
    </contour>
    <contour>
      <point x="287" y="51"/>
      <point x="174" y="163"/>
      <point x="174" y="330" type="curve" smooth="yes"/>
      <point x="174" y="497"/>
      <point x="287" y="609"/>
      <point x="455" y="609" type="curve" smooth="yes"/>
      <point x="623" y="609"/>
      <point x="736" y="497"/>
      <point x="736" y="330" type="curve" smooth="yes"/>
      <point x="736" y="163"/>
      <point x="623" y="51"/>
      <point x="455" y="51" type="curve" smooth="yes"/>
    </contour>
  </outline>
</glyph>
<glyph name="j_j.liga" format="2">
  <advance width="612"/>
  <outline>
    <contour>
      <point x="39" y="500" type="line"/>
      <point x="39" y="7" type="line" smooth="yes"/>
      <point x="39" y="-44"/>
      <point x="17" y="-64"/>
      <point x="-25" y="-64" type="curve" smooth="yes"/>
      <point x="-45" y="-64"/>
      <point x="-65" y="-59"/>
      <point x="-76" y="-51" type="curve"/>
      <point x="-104" y="-184" type="line"/>
      <point x="-63" y="-206"/>
      <point x="-15" y="-215"/>
      <point x="48" y="-215" type="curve" smooth="yes"/>
      <point x="203" y="-215"/>
      <point x="269" y="-155"/>
      <point x="269" y="-13" type="curve" smooth="yes"/>
      <point x="269" y="500" type="line"/>
    </contour>
    <contour>
      <point x="345" y="500" type="line"/>
      <point x="345" y="-13" type="line" smooth="yes"/>
      <point x="345" y="-48"/>
      <point x="335" y="-60"/>
      <point x="318" y="-60" type="curve" smooth="yes"/>
      <point x="305" y="-60"/>
      <point x="297" y="-58"/>
      <point x="289" y="-50" type="curve"/>
      <point x="260" y="-201" type="line"/>
      <point x="291" y="-212"/>
      <point x="313" y="-215"/>
      <point x="349" y="-215" type="curve" smooth="yes"/>
      <point x="462" y="-215"/>
      <point x="575" y="-187"/>
      <point x="575" y="-23" type="curve" smooth="yes"/>
      <point x="575" y="500" type="line"/>
    </contour>
    <contour>
      <point x="62" y="724"/>
      <point x="29" y="698"/>
      <point x="29" y="628" type="curve" smooth="yes"/>
      <point x="29" y="558"/>
      <point x="62" y="532"/>
      <point x="153" y="532" type="curve" smooth="yes"/>
      <point x="246" y="532"/>
      <point x="279" y="558"/>
      <point x="279" y="628" type="curve" smooth="yes"/>
      <point x="279" y="698"/>
      <point x="246" y="724"/>
      <point x="153" y="724" type="curve" smooth="yes"/>
    </contour>
    <contour>
      <point x="368" y="724"/>
      <point x="335" y="698"/>
      <point x="335" y="628" type="curve" smooth="yes"/>
      <point x="335" y="558"/>
      <point x="368" y="532"/>
      <point x="459" y="532" type="curve" smooth="yes"/>
      <point x="552" y="532"/>
      <point x="585" y="558"/>
      <point x="585" y="628" type="curve" smooth="yes"/>
      <point x="585" y="698"/>
      <point x="552" y="724"/>
      <point x="459" y="724" type="curve" smooth="yes"/>
    </contour>
  </outline>
</glyph>
<glyph name="k.sc" format="2">
  <advance width="699"/>
  <anchor x="357" y="0" name="bottom"/>
  <anchor x="588" y="0" name="bottomC"/>
  <anchor x="704" y="0" name="ogonek"/>
  <anchor x="344" y="560" name="top"/>
  <outline>
    <contour>
      <point x="458" y="560" type="line"/>
      <point x="189" y="240" type="line"/>
      <point x="244" y="79" type="line"/>
      <point x="364" y="215" type="line"/>
      <point x="386" y="199" type="line"/>
      <point x="696" y="560" type="line"/>
    </contour>
    <contour>
      <point x="53" y="560" type="line"/>
      <point x="53" y="0" type="line"/>
      <point x="278" y="0" type="line"/>
      <point x="278" y="560" type="line"/>
    </contour>
    <contour>
      <point x="290" y="274" type="line"/>
      <point x="448" y="0" type="line"/>
      <point x="704" y="0" type="line"/>
      <point x="454" y="390" type="line"/>
    </contour>
  </outline>
</glyph>
<glyph name="l.ss02" format="2">
  <advance width="308"/>
  <anchor x="154" y="0" name="bottom"/>
  <anchor x="154" y="0" name="bottomC"/>
  <anchor x="250" y="10" name="ogonek"/>
  <anchor x="154" y="700" name="top"/>
  <anchor x="320" y="700" name="topright"/>
  <outline>
    <contour>
      <point x="39" y="700" type="line"/>
      <point x="39" y="0" type="line"/>
      <point x="269" y="0" type="line"/>
      <point x="269" y="700" type="line"/>
    </contour>
  </outline>
</glyph>
<glyph name="m.sc" format="2">
  <advance width="885"/>
  <anchor x="443" y="0" name="bottom"/>
  <anchor x="460" y="0" name="bottomC"/>
  <anchor x="832" y="0" name="ogonek"/>
  <anchor x="443" y="560" name="top"/>
  <outline>
    <contour>
      <point x="258" y="0" type="line"/>
      <point x="258" y="134" type="line"/>
      <point x="247" y="358" type="line"/>
      <point x="248" y="358" type="line"/>
      <point x="361" y="0" type="line"/>
      <point x="524" y="0" type="line"/>
      <point x="637" y="358" type="line"/>
      <point x="638" y="358" type="line"/>
      <point x="627" y="134" type="line"/>
      <point x="627" y="0" type="line"/>
      <point x="832" y="0" type="line"/>
      <point x="832" y="560" type="line"/>
      <point x="526" y="560" type="line"/>
      <point x="475" y="363" type="line"/>
      <point x="446" y="249" type="line"/>
      <point x="442" y="249" type="line"/>
      <point x="412" y="363" type="line"/>
      <point x="359" y="560" type="line"/>
      <point x="53" y="560" type="line"/>
      <point x="53" y="0" type="line"/>
    </contour>
  </outline>
</glyph>
<glyph name="oe.sc" format="2">
  <advance width="921"/>
  <anchor x="510" y="0" name="bottom"/>
  <anchor x="510" y="560" name="top"/>
  <outline>
    <contour>
      <point x="439" y="-8"/>
      <point x="488" y="49"/>
      <point x="494" y="280" type="curve"/>
      <point x="488" y="511"/>
      <point x="439" y="568"/>
      <point x="293" y="568" type="curve" smooth="yes"/>
      <point x="151" y="568"/>
      <point x="26" y="462"/>
      <point x="26" y="280" type="curve" smooth="yes"/>
      <point x="26" y="98"/>
      <point x="151" y="-8"/>
      <point x="293" y="-8" type="curve" smooth="yes"/>
    </contour>
    <contour>
      <point x="274" y="162"/>
      <point x="251" y="193"/>
      <point x="251" y="280" type="curve" smooth="yes"/>
      <point x="251" y="367"/>
      <point x="274" y="398"/>
      <point x="327" y="398" type="curve" smooth="yes"/>
      <point x="380" y="398"/>
      <point x="403" y="367"/>
      <point x="403" y="280" type="curve" smooth="yes"/>
      <point x="403" y="193"/>
      <point x="380" y="162"/>
      <point x="327" y="162" type="curve" smooth="yes"/>
    </contour>
    <contour>
      <point x="896" y="0" type="line"/>
      <point x="896" y="153" type="line"/>
      <point x="528" y="153" type="line"/>
      <point x="528" y="0" type="line"/>
    </contour>
    <contour>
      <point x="617" y="0" type="line"/>
      <point x="617" y="560" type="line"/>
      <point x="471" y="560" type="line"/>
      <point x="471" y="0" type="line"/>
    </contour>
    <contour>
      <point x="840" y="209" type="line"/>
      <point x="840" y="353" type="line"/>
      <point x="528" y="353" type="line"/>
      <point x="528" y="209" type="line"/>
    </contour>
    <contour>
      <point x="895" y="407" type="line"/>
      <point x="895" y="560" type="line"/>
      <point x="528" y="560" type="line"/>
      <point x="528" y="407" type="line"/>
    </contour>
  </outline>
</glyph>
<glyph name="one.tf" format="2">
  <advance width="604"/>
  <outline>
    <contour>
      <point x="433" y="0" type="line"/>
      <point x="433" y="506" type="line"/>
      <point x="433" y="660" type="line"/>
      <point x="252" y="660" type="line"/>
      <point x="235" y="609"/>
      <point x="223" y="548"/>
      <point x="223" y="496" type="curve" smooth="yes"/>
      <point x="223" y="0" type="line"/>
    </contour>
    <contour>
      <point x="574" y="0" type="line"/>
      <point x="574" y="169" type="line"/>
      <point x="58" y="169" type="line"/>
      <point x="58" y="0" type="line"/>
    </contour>
    <contour>
      <point x="195" y="389"/>
      <point x="301" y="525"/>
      <point x="337" y="614" type="curve"/>
      <point x="252" y="660" type="line"/>
      <point x="220" y="613"/>
      <point x="140" y="563"/>
      <point x="54" y="554" type="curve"/>
      <point x="67" y="380" type="line"/>
    </contour>
  </outline>
</glyph>
<glyph name="oslash.sc" format="2">
  <advance width="660"/>
  <anchor x="330" y="0" name="bottom"/>
  <anchor x="330" y="0" name="bottomC"/>
  <anchor x="410" y="0" name="ogonek"/>
  <anchor x="330" y="560" name="top"/>
  <outline>
    <contour>
      <point x="538" y="570" type="line"/>
      <point x="438" y="439" type="line"/>
      <point x="464" y="398" type="line"/>
      <point x="608" y="570" type="line"/>
    </contour>
    <contour>
      <point x="204" y="144" type="line"/>
      <point x="244" y="108" type="line"/>
      <point x="456" y="398" type="line"/>
      <point x="417" y="437" type="line"/>
    </contour>
    <contour>
      <point x="122" y="-10" type="line"/>
      <point x="223" y="123" type="line"/>
      <point x="196" y="161" type="line"/>
      <point x="52" y="-10" type="line"/>
    </contour>
    <component base="o.sc"/>
  </outline>
</glyph>
<glyph name="s_t" format="2">
  <advance width="954"/>
  <outline>
    <contour>
      <point x="454" y="-10"/>
      <point x="529" y="74"/>
      <point x="529" y="170" type="curve" smooth="yes"/>
      <point x="529" y="265"/>
      <point x="461" y="309"/>
      <point x="318" y="332" type="curve" smooth="yes"/>
      <point x="259" y="341"/>
      <point x="247" y="346"/>
      <point x="247" y="354" type="curve" smooth="yes"/>
      <point x="247" y="363"/>
      <point x="259" y="372"/>
      <point x="298" y="372" type="curve" smooth="yes"/>
      <point x="346" y="372"/>
      <point x="397" y="363"/>
      <point x="431" y="323" type="curve"/>
      <point x="528" y="437" type="line"/>
      <point x="498" y="461"/>
      <point x="490" y="481"/>
      <point x="490" y="511" type="curve" smooth="yes"/>
      <point x="490" y="539"/>
      <point x="505" y="555"/>
      <point x="533" y="555" type="curve" smooth="yes"/>
      <point x="559" y="555"/>
      <point x="587" y="537"/>
      <point x="587" y="481" type="curve" smooth="yes"/>
      <point x="587" y="168" type="line" smooth="yes"/>
      <point x="587" y="38"/>
      <point x="661" y="-10"/>
      <point x="801" y="-10" type="curve" smooth="yes"/>
      <point x="851" y="-10"/>
      <point x="916" y="3"/>
      <point x="950" y="24" type="curve"/>
      <point x="940" y="154" type="line"/>
      <point x="922" y="145"/>
      <point x="904" y="141"/>
      <point x="877" y="141" type="curve" smooth="yes"/>
      <point x="836" y="141"/>
      <point x="817" y="158"/>
      <point x="817" y="204" type="curve" smooth="yes"/>
      <point x="817" y="510" type="line" smooth="yes"/>
      <point x="817" y="667"/>
      <point x="709" y="720"/>
      <point x="571" y="720" type="curve" smooth="yes"/>
      <point x="435" y="720"/>
      <point x="328" y="659"/>
      <point x="328" y="548" type="curve" smooth="yes"/>
      <point x="328" y="493"/>
      <point x="381" y="460"/>
      <point x="421" y="449" type="curve"/>
      <point x="409" y="495" type="line"/>
      <point x="359" y="509"/>
      <point x="305" y="510"/>
      <point x="287" y="510" type="curve" smooth="yes"/>
      <point x="97" y="510"/>
      <point x="16" y="418"/>
      <point x="16" y="336" type="curve" smooth="yes"/>
      <point x="16" y="256"/>
      <point x="78" y="203"/>
      <point x="223" y="175" type="curve" smooth="yes"/>
      <point x="279" y="164"/>
      <point x="298" y="155"/>
      <point x="298" y="143" type="curve" smooth="yes"/>
      <point x="298" y="132"/>
      <point x="277" y="128"/>
      <point x="254" y="128" type="curve" smooth="yes"/>
      <point x="195" y="128"/>
      <point x="143" y="154"/>
      <point x="107" y="186" type="curve"/>
      <point x="6" y="64" type="line"/>
      <point x="65" y="11"/>
      <point x="149" y="-10"/>
      <point x="271" y="-10" type="curve" smooth="yes"/>
    </contour>
    <contour>
      <point x="943" y="345" type="line"/>
      <point x="943" y="500" type="line"/>
      <point x="610" y="500" type="line"/>
      <point x="610" y="345" type="line"/>
    </contour>
  </outline>
</glyph>
<glyph name="seven.tosf" format="2">
  <advance width="604"/>
  <outline>
    <contour>
      <point x="31" y="390" type="line"/>
      <point x="478" y="390" type="line"/>
      <point x="426" y="446" type="line"/>
      <point x="232" y="283"/>
      <point x="151" y="112"/>
      <point x="151" y="-100" type="curve"/>
      <point x="379" y="-100" type="line"/>
      <point x="379" y="89"/>
      <point x="419" y="256"/>
      <point x="583" y="406" type="curve"/>
      <point x="583" y="560" type="line"/>
      <point x="31" y="560" type="line"/>
    </contour>
  </outline>
</glyph>
<glyph name="six.sc" format="2">
  <advance width="573"/>
  <outline>
    <contour>
      <point x="470" y="-8"/>
      <point x="548" y="76"/>
      <point x="546" y="185" type="curve" smooth="yes"/>
      <point x="544" y="297"/>
      <point x="456" y="343"/>
      <point x="372" y="343" type="curve" smooth="yes"/>
      <point x="303" y="343"/>
      <point x="261" y="325"/>
      <point x="232" y="291" type="curve"/>
      <point x="230" y="291" type="line"/>
      <point x="230" y="293"/>
      <point x="230" y="298"/>
      <point x="230" y="299" type="curve" smooth="yes"/>
      <point x="230" y="384"/>
      <point x="269" y="408"/>
      <point x="313" y="408" type="curve" smooth="yes"/>
      <point x="349" y="408"/>
      <point x="368" y="395"/>
      <point x="379" y="366" type="curve"/>
      <point x="542" y="441" type="line"/>
      <point x="498" y="530"/>
      <point x="431" y="568"/>
      <point x="308" y="568" type="curve" smooth="yes"/>
      <point x="138" y="568"/>
      <point x="30" y="472"/>
      <point x="30" y="284" type="curve" smooth="yes"/>
      <point x="30" y="87"/>
      <point x="131" y="-8"/>
      <point x="301" y="-8" type="curve" smooth="yes"/>
    </contour>
    <contour>
      <point x="276" y="134"/>
      <point x="260" y="150"/>
      <point x="260" y="177" type="curve" smooth="yes"/>
      <point x="260" y="204"/>
      <point x="276" y="220"/>
      <point x="305" y="220" type="curve" smooth="yes"/>
      <point x="334" y="220"/>
      <point x="350" y="204"/>
      <point x="350" y="177" type="curve" smooth="yes"/>
      <point x="350" y="150"/>
      <point x="334" y="134"/>
      <point x="305" y="134" type="curve" smooth="yes"/>
    </contour>
  </outline>
</glyph>
<glyph name="sterling.part.tf" format="2">
  <advance width="630"/>
  <outline>
    <contour>
      <point x="154" y="670"/>
      <point x="76" y="575"/>
      <point x="76" y="479" type="curve" smooth="yes"/>
      <point x="76" y="429"/>
      <point x="91" y="391"/>
      <point x="136" y="330" type="curve" smooth="yes"/>
      <point x="186" y="260"/>
      <point x="202" y="218"/>
      <point x="202" y="158" type="curve" smooth="yes"/>
      <point x="202" y="81"/>
      <point x="190" y="61"/>
      <point x="160" y="61" type="curve" smooth="yes"/>
      <point x="138" y="61"/>
      <point x="125" y="71"/>
      <point x="125" y="88" type="curve" smooth="yes"/>
      <point x="125" y="105"/>
      <point x="136" y="115"/>
      <point x="160" y="115" type="curve" smooth="yes"/>
      <point x="262" y="115"/>
      <point x="307" y="-10"/>
      <point x="435" y="-10" type="curve" smooth="yes"/>
      <point x="544" y="-10"/>
      <point x="581" y="83"/>
      <point x="573" y="191" type="curve"/>
      <point x="442" y="211" type="line"/>
      <point x="446" y="163"/>
      <point x="430" y="139"/>
      <point x="394" y="139" type="curve" smooth="yes"/>
      <point x="316" y="139"/>
      <point x="310" y="184"/>
      <point x="163" y="184" type="curve" smooth="yes"/>
      <point x="92" y="184"/>
      <point x="27" y="155"/>
      <point x="27" y="87" type="curve" smooth="yes"/>
      <point x="27" y="22"/>
      <point x="86" y="-10"/>
      <point x="158" y="-10" type="curve" smooth="yes"/>
      <point x="281" y="-10"/>
      <point x="358" y="94"/>
      <point x="359" y="223" type="curve" smooth="yes"/>
      <point x="360" y="281"/>
      <point x="344" y="327"/>
      <point x="303" y="387" type="curve" smooth="yes"/>
      <point x="279" y="425"/>
      <point x="271" y="442"/>
      <point x="271" y="462" type="curve" smooth="yes"/>
      <point x="271" y="497"/>
      <point x="289" y="513"/>
      <point x="317" y="513" type="curve" smooth="yes"/>
      <point x="353" y="513"/>
      <point x="379" y="492"/>
      <point x="385" y="419" type="curve"/>
      <point x="565" y="484" type="line"/>
      <point x="539" y="610"/>
      <point x="471" y="670"/>
      <point x="326" y="670" type="curve" smooth="yes"/>
    </contour>
  </outline>
</glyph>
<glyph name="thorn.sc" format="2">
  <advance width="649"/>
  <anchor x="168" y="0" name="bottom"/>
  <anchor x="168" y="560" name="top"/>
  <outline>
    <contour>
      <point x="384" y="80" type="line" smooth="yes"/>
      <point x="532" y="80"/>
      <point x="619" y="157"/>
      <point x="619" y="280" type="curve" smooth="yes"/>
      <point x="619" y="403"/>
      <point x="532" y="480"/>
      <point x="384" y="480" type="curve" smooth="yes"/>
      <point x="198" y="480" type="line"/>
      <point x="198" y="332" type="line"/>
      <point x="336" y="332" type="line" smooth="yes"/>
      <point x="375" y="332"/>
      <point x="395" y="316"/>
      <point x="395" y="280" type="curve" smooth="yes"/>
      <point x="395" y="244"/>
      <point x="375" y="228"/>
      <point x="336" y="228" type="curve" smooth="yes"/>
      <point x="198" y="228" type="line"/>
      <point x="198" y="80" type="line"/>
    </contour>
    <contour>
      <point x="278" y="0" type="line"/>
      <point x="278" y="560" type="line"/>
      <point x="53" y="560" type="line"/>
      <point x="53" y="0" type="line"/>
    </contour>
  </outline>
</glyph>
<glyph name="three.tf" format="2">
  <advance width="604"/>
  <outline>
    <contour>
      <point x="163" y="670"/>
      <point x="47" y="626"/>
      <point x="31" y="479" type="curve"/>
      <point x="229" y="417" type="line"/>
      <point x="225" y="483"/>
      <point x="258" y="499"/>
      <point x="289" y="499" type="curve" smooth="yes"/>
      <point x="315" y="499"/>
      <point x="336" y="479"/>
      <point x="336" y="446" type="curve" smooth="yes"/>
      <point x="336" y="410"/>
      <point x="316" y="392"/>
      <point x="279" y="392" type="curve" smooth="yes"/>
      <point x="247" y="392" type="line"/>
      <point x="247" y="260" type="line"/>
      <point x="291" y="260" type="line" smooth="yes"/>
      <point x="329" y="260"/>
      <point x="348" y="246"/>
      <point x="349" y="215" type="curve" smooth="yes"/>
      <point x="350" y="179"/>
      <point x="323" y="161"/>
      <point x="293" y="161" type="curve" smooth="yes"/>
      <point x="259" y="161"/>
      <point x="224" y="171"/>
      <point x="227" y="243" type="curve"/>
      <point x="22" y="158" type="line"/>
      <point x="56" y="34"/>
      <point x="147" y="-10"/>
      <point x="304" y="-10" type="curve" smooth="yes"/>
      <point x="454" y="-10"/>
      <point x="571" y="63"/>
      <point x="571" y="182" type="curve" smooth="yes"/>
      <point x="571" y="321"/>
      <point x="456" y="328"/>
      <point x="435" y="328" type="curve"/>
      <point x="435" y="332" type="line"/>
      <point x="454" y="332"/>
      <point x="559" y="354"/>
      <point x="559" y="476" type="curve" smooth="yes"/>
      <point x="559" y="602"/>
      <point x="467" y="670"/>
      <point x="309" y="670" type="curve" smooth="yes"/>
    </contour>
  </outline>
</glyph>
<glyph name="two.osf" format="2">
  <advance width="595"/>
  <outline>
    <contour>
      <point x="72" y="570"/>
      <point x="22" y="460"/>
      <point x="26" y="357" type="curve"/>
      <point x="234" y="315" type="line"/>
      <point x="226" y="388"/>
      <point x="245" y="416"/>
      <point x="291" y="416" type="curve" smooth="yes"/>
      <point x="327" y="416"/>
      <point x="345" y="399"/>
      <point x="345" y="367" type="curve" smooth="yes"/>
      <point x="345" y="282"/>
      <point x="291" y="251"/>
      <point x="41" y="130" type="curve"/>
      <point x="41" y="0" type="line"/>
      <point x="569" y="0" type="line"/>
      <point x="569" y="151" type="line"/>
      <point x="422" y="151" type="line" smooth="yes"/>
      <point x="394" y="151"/>
      <point x="345" y="149"/>
      <point x="307" y="147" type="curve"/>
      <point x="307" y="149" type="line"/>
      <point x="325" y="153"/>
      <point x="342" y="159"/>
      <point x="360" y="165" type="curve" smooth="yes"/>
      <point x="445" y="197"/>
      <point x="562" y="246"/>
      <point x="562" y="385" type="curve" smooth="yes"/>
      <point x="562" y="474"/>
      <point x="498" y="570"/>
      <point x="297" y="570" type="curve" smooth="yes"/>
    </contour>
  </outline>
</glyph>
<glyph name="uni0162.sc" format="2">
  <advance width="645"/>
  <anchor x="322" y="-210" name="bottom"/>
  <anchor x="341" y="-210" name="bottomC"/>
  <anchor x="360" y="-210" name="ogonek"/>
  <anchor x="322" y="560" name="top"/>
  <anchor x="325" y="229" name="center"/>
  <outline>
    <contour>
      <point x="319" y="0"/>
      <point x="347" y="-18"/>
      <point x="347" y="-51" type="curve" smooth="yes"/>
      <point x="347" y="-87"/>
      <point x="320" y="-101"/>
      <point x="291" y="-101" type="curve" smooth="yes"/>
      <point x="256" y="-101"/>
      <point x="240" y="-89"/>
      <point x="225" y="-70" type="curve"/>
      <point x="169" y="-170" type="line"/>
      <point x="193" y="-193"/>
      <point x="235" y="-215"/>
      <point x="308" y="-215" type="curve" smooth="yes"/>
      <point x="396" y="-215"/>
      <point x="469" y="-184"/>
      <point x="469" y="-83" type="curve" smooth="yes"/>
      <point x="469" y="3"/>
      <point x="409" y="46"/>
      <point x="283" y="48" type="curve"/>
      <point x="273" y="0" type="line"/>
    </contour>
    <component base="t.sc"/>
  </outline>
</glyph>
<glyph name="uogonek_j" format="2">
  <advance width="926"/>
  <anchor x="732" y="-210" name="bottomC"/>
  <anchor x="773" y="714" name="top"/>
  <anchor x="754" y="-204" name="ogonek"/>
  <anchor x="732" y="-210" name="bottom"/>
  <outline>
    <contour>
      <point x="321" y="-10"/>
      <point x="389" y="73"/>
      <point x="389" y="239" type="curve"/>
      <point x="351" y="239" type="line"/>
      <point x="351" y="185"/>
      <point x="336" y="160"/>
      <point x="305" y="160" type="curve" smooth="yes"/>
      <point x="279" y="160"/>
      <point x="268" y="174"/>
      <point x="268" y="219" type="curve" smooth="yes"/>
      <point x="268" y="500" type="line"/>
      <point x="38" y="500" type="line"/>
      <point x="38" y="162" type="line" smooth="yes"/>
      <point x="38" y="40"/>
      <point x="96" y="-10"/>
      <point x="200" y="-10" type="curve" smooth="yes"/>
    </contour>
    <contour>
      <point x="482" y="-215"/>
      <point x="513" y="-210"/>
      <point x="533" y="-195" type="curve"/>
      <point x="554" y="-85" type="line"/>
      <point x="543" y="-92"/>
      <point x="526" y="-94"/>
      <point x="507" y="-94" type="curve" smooth="yes"/>
      <point x="483" y="-94"/>
      <point x="468" y="-79"/>
      <point x="468" y="-60" type="curve" smooth="yes"/>
      <point x="468" y="-29"/>
      <point x="496" y="0"/>
      <point x="581" y="0" type="curve"/>
      <point x="491" y="27" type="line"/>
      <point x="379" y="27"/>
      <point x="315" y="-25"/>
      <point x="315" y="-100" type="curve" smooth="yes"/>
      <point x="315" y="-166"/>
      <point x="364" y="-215"/>
      <point x="448" y="-215" type="curve" smooth="yes"/>
    </contour>
    <contour>
      <point x="581" y="0" type="line"/>
      <point x="581" y="152" type="line"/>
      <point x="581" y="500" type="line"/>
      <point x="351" y="500" type="line"/>
      <point x="351" y="219" type="line"/>
      <point x="369" y="149" type="line"/>
      <point x="378" y="-15" type="line"/>
    </contour>
    <component base="j.ogonek" xOffset="574"/>
  </outline>
</glyph>
<glyph name="y.swsh" format="2">
  <advance width="659"/>
  <anchor x="206" y="-210" name="bottom"/>
  <anchor x="169" y="-210" name="bottomC"/>
  <anchor x="212" y="-210" name="ogonek"/>
  <anchor x="323" y="500" name="top"/>
  <outline>
    <contour>
      <point x="311" y="-215"/>
      <point x="398" y="-145"/>
      <point x="457" y="56" type="curve" smooth="yes"/>
      <point x="543" y="345" type="line" smooth="yes"/>
      <point x="558" y="397"/>
      <point x="583" y="417"/>
      <point x="626" y="417" type="curve" smooth="yes"/>
      <point x="653" y="417"/>
      <point x="666" y="411"/>
      <point x="678" y="404" type="curve"/>
      <point x="719" y="545" type="line"/>
      <point x="680" y="579"/>
      <point x="646" y="590"/>
      <point x="584" y="590" type="curve" smooth="yes"/>
      <point x="480" y="590"/>
      <point x="399" y="539"/>
      <point x="372" y="425" type="curve" smooth="yes"/>
      <point x="329" y="243" type="line"/>
      <point x="307" y="125" type="line"/>
      <point x="288" y="242" type="line"/>
      <point x="243" y="500" type="line"/>
      <point x="-8" y="500" type="line"/>
      <point x="135" y="128" type="line"/>
      <point x="198" y="-19" type="line"/>
      <point x="195" y="-27" type="line" smooth="yes"/>
      <point x="187" y="-47"/>
      <point x="169" y="-54"/>
      <point x="126" y="-54" type="curve" smooth="yes"/>
      <point x="78" y="-54"/>
      <point x="58" y="-49"/>
      <point x="37" y="-37" type="curve"/>
      <point x="-5" y="-182" type="line"/>
      <point x="32" y="-202"/>
      <point x="85" y="-215"/>
      <point x="149" y="-215" type="curve" smooth="yes"/>
    </contour>
  </outline>
</glyph>
<glyph name="zero.osf.zero" format="2">
  <advance width="628"/>
  <outline>
    <contour>
      <point x="463" y="474" type="line"/>
      <point x="376" y="516" type="line"/>
      <point x="166" y="80" type="line"/>
      <point x="257" y="45" type="line"/>
    </contour>
    <component base="zero.osf"/>
  </outline>
</glyph>
<glyph name="zero.zero" format="2">
  <advance width="658"/>
  <outline>
    <contour>
      <point x="492" y="578" type="line"/>
      <point x="405" y="620" type="line"/>
      <point x="177" y="76" type="line"/>
      <point x="268" y="41" type="line"/>
    </contour>
    <component base="zero"/>
  </outline>
</glyph>
